<svg width="39" height="39" viewBox="0 0 39 39" fill="none" xmlns="http://www.w3.org/2000/svg">
<rect x="0.5" y="0.583374" width="38" height="38" rx="19" fill="white" fill-opacity="0.05"/>
<path d="M14.7197 24.1802H11.9077V29.2958H14.7197V24.1802Z" stroke="#FEFEFE" stroke-opacity="0.65" stroke-width="1.5" stroke-linecap="round" stroke-linejoin="round"/>
<path d="M20.9063 29.2632L20.8847 19.1077H18.0944V29.2632H20.9063Z" stroke="#FEFEFE" stroke-opacity="0.65" stroke-width="1.5" stroke-linecap="round" stroke-linejoin="round"/>
<path d="M27.049 15.2358H24.2371V29.2957H27.049V15.2358Z" stroke="#B5B5B5" stroke-width="1.5" stroke-linecap="round" stroke-linejoin="round"/>
<path d="M25.0808 10.9851L14.4277 18.4152" stroke="#B5B5B5" stroke-linecap="round" stroke-linejoin="round"/>
<path d="M13.53 20.1028C14.1273 20.1028 14.6115 19.6185 14.6115 19.0212C14.6115 18.4239 14.1273 17.9397 13.53 17.9397C12.9327 17.9397 12.4485 18.4239 12.4485 19.0212C12.4485 19.6185 12.9327 20.1028 13.53 20.1028Z" stroke="#B5B5B5" stroke-linecap="round" stroke-linejoin="round"/>
<path d="M25.9676 11.4504C26.565 11.4504 27.0492 10.9662 27.0492 10.3689C27.0492 9.77157 26.565 9.28735 25.9676 9.28735C25.3703 9.28735 24.8861 9.77157 24.8861 10.3689C24.8861 10.9662 25.3703 11.4504 25.9676 11.4504Z" stroke="#B5B5B5" stroke-linecap="round" stroke-linejoin="round"/>
</svg>
