<svg width="39" height="38" viewBox="0 0 39 38" fill="none" xmlns="http://www.w3.org/2000/svg">
<rect x="0.5" width="38" height="38" rx="19" fill="#212121" fill-opacity="0.15"/>
<path d="M14.7186 23.5977H11.907V28.7094H14.7186V23.5977Z" fill="#3B3B3D"/>
<path d="M20.9065 28.6728L20.886 18.5217H18.0949V28.6728H20.9065Z" fill="#3B3B3D"/>
<path d="M27.0464 14.6511H24.2348V28.7093H27.0464V14.6511Z" fill="#3B3B3D"/>
<path d="M14.4265 18.371C14.3115 18.3709 14.1994 18.3342 14.1067 18.2661C14.014 18.198 13.9454 18.1021 13.9109 17.9924C13.8764 17.8826 13.8778 17.7648 13.9149 17.6559C13.952 17.547 14.0229 17.4528 14.1172 17.3869L24.769 9.95772C24.8867 9.87915 25.0304 9.84984 25.1695 9.87608C25.3085 9.90232 25.4317 9.98201 25.5127 10.0981C25.5936 10.2141 25.6259 10.3573 25.6025 10.4968C25.5791 10.6363 25.5019 10.7612 25.3875 10.8445L14.7358 18.2747C14.645 18.3377 14.537 18.3713 14.4265 18.371Z" fill="#3B3B3D"/>
<path d="M13.5291 20.0582C14.4249 20.0582 15.1512 19.3319 15.1512 18.4361C15.1512 17.5402 14.4249 16.814 13.5291 16.814C12.6332 16.814 11.907 17.5402 11.907 18.4361C11.907 19.3319 12.6332 20.0582 13.5291 20.0582Z" fill="#3B3B3D"/>
<path d="M25.9651 11.407C26.861 11.407 27.5872 10.6808 27.5872 9.78494C27.5872 8.88908 26.861 8.16284 25.9651 8.16284C25.0693 8.16284 24.343 8.88908 24.343 9.78494C24.343 10.6808 25.0693 11.407 25.9651 11.407Z" fill="#3B3B3D"/>
</svg>
