<svg width="38" height="38" viewBox="0 0 38 38" fill="none" xmlns="http://www.w3.org/2000/svg">
<rect width="38" height="38" rx="19" fill="#212121" fill-opacity="0.15"/>
<path d="M23.8774 9.7959H14.122C11.7318 9.7959 9.7959 11.7318 9.7959 14.122V23.8774C9.7959 26.2676 11.7318 28.2036 14.122 28.2036H23.8774C26.2676 28.2036 28.2036 26.2676 28.2036 23.8774V14.122C28.2036 11.7318 26.2676 9.7959 23.8774 9.7959ZM24.7751 23.6503C25.0887 23.964 25.0887 24.4831 24.7751 24.7967C24.6129 24.959 24.4074 25.0347 24.2019 25.0347C23.9964 25.0347 23.7909 24.959 23.6287 24.7967L18.9997 20.157L14.36 24.7859C14.1977 24.9481 13.9922 25.0239 13.7867 25.0239C13.5813 25.0239 13.3758 24.9481 13.2135 24.7859C12.8999 24.4723 12.8999 23.9531 13.2135 23.6395L17.8533 19.0105L13.2244 14.3708C12.9107 14.0571 12.9107 13.538 13.2244 13.2244C13.538 12.9107 14.0571 12.9107 14.3708 13.2244L18.9997 17.8641L23.6395 13.2352C23.9531 12.9215 24.4723 12.9215 24.7859 13.2352C25.0996 13.5488 25.0996 14.0679 24.7859 14.3816L20.1461 19.0105L24.7751 23.6503Z" fill="#3B3B3D"/>
</svg>
