<svg width="38" height="39" viewBox="0 0 38 39" fill="none" xmlns="http://www.w3.org/2000/svg">
<rect y="0.583374" width="38" height="38" rx="19" fill="white" fill-opacity="0.05"/>
<path d="M27.7514 16.9367C27.7514 21.723 20.0735 27.1537 18.977 27.1537C17.8804 27.1537 10.249 21.723 10.249 16.9367C10.2481 15.9181 10.5635 14.9245 11.1516 14.0928C11.7397 13.2612 12.5714 12.6327 13.532 12.294C14.4927 11.9554 15.5347 11.9234 16.5143 12.2023C17.4939 12.4813 18.3627 13.0576 19.0008 13.8515C19.4584 13.2757 20.0407 12.8111 20.7037 12.4927C21.3668 12.1743 22.0934 12.0103 22.8289 12.0131C23.4757 12.0122 24.1162 12.139 24.7139 12.3862C25.3116 12.6333 25.8547 12.996 26.3119 13.4533C26.7692 13.9107 27.1318 14.4538 27.3788 15.0516C27.6258 15.6493 27.7524 16.2899 27.7514 16.9367Z" stroke="white" stroke-opacity="0.65" stroke-width="1.5" stroke-linejoin="round"/>
</svg>
