<svg width="38" height="38" viewBox="0 0 38 38" fill="none" xmlns="http://www.w3.org/2000/svg">
<rect width="38" height="38" rx="19" fill="#212121" fill-opacity="0.15"/>
<path d="M27.7514 16.3533C27.7514 21.1396 20.0735 26.5703 18.977 26.5703C17.8804 26.5703 10.249 21.1396 10.249 16.3533C10.2481 15.3348 10.5635 14.3411 11.1516 13.5095C11.7397 12.6778 12.5714 12.0493 13.532 11.7107C14.4927 11.372 15.5347 11.34 16.5143 11.619C17.4939 11.8979 18.3627 12.4742 19.0008 13.2681C19.4584 12.6923 20.0407 12.2277 20.7037 11.9093C21.3668 11.5909 22.0934 11.4269 22.8289 11.4297C23.4757 11.4289 24.1162 11.5556 24.7139 11.8028C25.3116 12.0499 25.8547 12.4126 26.3119 12.87C26.7692 13.3274 27.1318 13.8705 27.3788 14.4682C27.6258 15.0659 27.7524 15.7066 27.7514 16.3533Z" fill="#3B3B3D"/>
</svg>
