<svg width="38" height="38" viewBox="0 0 38 38" fill="none" xmlns="http://www.w3.org/2000/svg">
<rect width="38" height="38" rx="19" fill="#212121" fill-opacity="0.15"/>
<path d="M18.7075 21.275C17.7217 21.4159 17.0392 22.3584 17.0392 23.3659V27.125C17.0392 27.4284 17.2775 27.6667 17.5809 27.6667H20.4084C20.7117 27.6667 20.95 27.4284 20.95 27.125V23.2142C20.95 22.0442 19.91 21.1017 18.7075 21.275Z" fill="#3B3B3D"/>
<path d="M26.8 14.0167L19.65 8.65419C19.26 8.36169 18.74 8.36169 18.35 8.65419L11.2 14.0167C10.6584 14.4284 10.3334 15.0675 10.3334 15.75V25.5C10.3334 26.6917 11.3084 27.6667 12.5 27.6667H14.8725C15.1759 27.6667 15.4142 27.4284 15.4142 27.125V23.3117C15.4142 21.6 16.5734 20.0509 18.2417 19.7042C20.5384 19.2384 22.575 20.9934 22.575 23.2034V27.1142C22.575 27.4175 22.8134 27.6559 23.1167 27.6559H25.4892C26.6809 27.6559 27.6559 26.6809 27.6559 25.4892V15.7392C27.6559 15.0567 27.3309 14.4175 26.7892 14.0059L26.8 14.0167Z" fill="#3B3B3D"/>
</svg>
