<svg width="38" height="38" viewBox="0 0 38 38" fill="none" xmlns="http://www.w3.org/2000/svg">
<rect width="38" height="38" rx="19" fill="#212121" fill-opacity="0.15"/>
<path d="M26.0146 16.0256H16.3113C15.9528 16.0256 15.609 15.8832 15.3555 15.6297C15.1019 15.3762 14.9595 15.0324 14.9595 14.6739C14.9595 14.3154 15.1019 13.9716 15.3555 13.7181C15.609 13.4646 15.9528 13.3221 16.3113 13.3221H26.0146C26.3731 13.3221 26.717 13.4646 26.9705 13.7181C27.224 13.9716 27.3664 14.3154 27.3664 14.6739C27.3664 15.0324 27.224 15.3762 26.9705 15.6297C26.717 15.8832 26.3731 16.0256 26.0146 16.0256Z" fill="#3B3B3D"/>
<path d="M26.0146 20.3512H16.3113C15.9528 20.3512 15.609 20.2088 15.3555 19.9553C15.1019 19.7018 14.9595 19.358 14.9595 18.9994C14.9595 18.6409 15.1019 18.2971 15.3555 18.0436C15.609 17.7901 15.9528 17.6477 16.3113 17.6477H26.0146C26.3731 17.6477 26.717 17.7901 26.9705 18.0436C27.224 18.2971 27.3664 18.6409 27.3664 18.9994C27.3664 19.358 27.224 19.7018 26.9705 19.9553C26.717 20.2088 26.3731 20.3512 26.0146 20.3512Z" fill="#3B3B3D"/>
<path d="M26.0146 24.6768H16.3113C15.9528 24.6768 15.609 24.5343 15.3555 24.2808C15.1019 24.0273 14.9595 23.6835 14.9595 23.325C14.9595 22.9665 15.1019 22.6227 15.3555 22.3692C15.609 22.1157 15.9528 21.9733 16.3113 21.9733H26.0146C26.3731 21.9733 26.717 22.1157 26.9705 22.3692C27.224 22.6227 27.3664 22.9665 27.3664 23.325C27.3664 23.6835 27.224 24.0273 26.9705 24.2808C26.717 24.5343 26.3731 24.6768 26.0146 24.6768Z" fill="#3B3B3D"/>
<path d="M12.4884 16.2732C13.3842 16.2732 14.1105 15.547 14.1105 14.6511C14.1105 13.7553 13.3842 13.0291 12.4884 13.0291C11.5925 13.0291 10.8663 13.7553 10.8663 14.6511C10.8663 15.547 11.5925 16.2732 12.4884 16.2732Z" fill="#3B3B3D"/>
<path d="M12.4884 20.5988C13.3842 20.5988 14.1105 19.8726 14.1105 18.9767C14.1105 18.0809 13.3842 17.3546 12.4884 17.3546C11.5925 17.3546 10.8663 18.0809 10.8663 18.9767C10.8663 19.8726 11.5925 20.5988 12.4884 20.5988Z" fill="#3B3B3D"/>
<path d="M12.4884 24.9244C13.3842 24.9244 14.1105 24.1981 14.1105 23.3023C14.1105 22.4064 13.3842 21.6802 12.4884 21.6802C11.5925 21.6802 10.8663 22.4064 10.8663 23.3023C10.8663 24.1981 11.5925 24.9244 12.4884 24.9244Z" fill="#3B3B3D"/>
</svg>
