<svg width="38" height="39" viewBox="0 0 38 39" fill="none" xmlns="http://www.w3.org/2000/svg">
<rect y="0.583374" width="38" height="38" rx="19" fill="white" fill-opacity="0.05"/>
<path d="M16.3179 15.2572H26.0192" stroke="#B6B6B6" stroke-width="1.5" stroke-linecap="round" stroke-linejoin="round"/>
<path d="M16.3179 19.5834H26.0192" stroke="#B6B6B6" stroke-width="1.5" stroke-linecap="round" stroke-linejoin="round"/>
<path d="M16.3179 23.9094H26.0192" stroke="#B6B6B6" stroke-width="1.5" stroke-linecap="round" stroke-linejoin="round"/>
<path d="M12.4892 16.3171C13.0866 16.3171 13.5708 15.8329 13.5708 15.2356C13.5708 14.6383 13.0866 14.1541 12.4892 14.1541C11.8919 14.1541 11.4077 14.6383 11.4077 15.2356C11.4077 15.8329 11.8919 16.3171 12.4892 16.3171Z" stroke="#B6B6B6" stroke-miterlimit="10"/>
<path d="M12.4892 20.6433C13.0866 20.6433 13.5708 20.1591 13.5708 19.5618C13.5708 18.9644 13.0866 18.4802 12.4892 18.4802C11.8919 18.4802 11.4077 18.9644 11.4077 19.5618C11.4077 20.1591 11.8919 20.6433 12.4892 20.6433Z" stroke="#B6B6B6" stroke-miterlimit="10"/>
<path d="M12.4892 24.9693C13.0866 24.9693 13.5708 24.4851 13.5708 23.8878C13.5708 23.2905 13.0866 22.8063 12.4892 22.8063C11.8919 22.8063 11.4077 23.2905 11.4077 23.8878C11.4077 24.4851 11.8919 24.9693 12.4892 24.9693Z" stroke="#B6B6B6" stroke-miterlimit="10"/>
</svg>
