<svg width="38" height="38" viewBox="0 0 38 38" fill="none" xmlns="http://www.w3.org/2000/svg">
<rect width="38" height="38" rx="19" fill="#212121" fill-opacity="0.15"/>
<path d="M17.0425 13.5708H14.1115C13.8128 13.5708 13.5707 13.8129 13.5707 14.1116V17.0317C13.5707 17.3304 13.8128 17.5725 14.1115 17.5725H17.0425C17.3411 17.5725 17.5832 17.3304 17.5832 17.0317V14.1116C17.5832 13.8129 17.3411 13.5708 17.0425 13.5708Z" fill="#3B3B3D"/>
<path d="M17.0425 20.9465H14.1115C13.8128 20.9465 13.5707 21.1886 13.5707 21.4873V24.4074C13.5707 24.7061 13.8128 24.9482 14.1115 24.9482H17.0425C17.3411 24.9482 17.5832 24.7061 17.5832 24.4074V21.4873C17.5832 21.1886 17.3411 20.9465 17.0425 20.9465Z" fill="#3B3B3D"/>
<path d="M24.6132 13.5708H21.6822C21.3836 13.5708 21.1415 13.8129 21.1415 14.1116V17.0317C21.1415 17.3304 21.3836 17.5725 21.6822 17.5725H24.6132C24.9118 17.5725 25.154 17.3304 25.154 17.0317V14.1116C25.154 13.8129 24.9118 13.5708 24.6132 13.5708Z" fill="#3B3B3D"/>
<path d="M24.6132 20.9465H21.6822C21.3836 20.9465 21.1415 21.1886 21.1415 21.4873V24.4074C21.1415 24.7061 21.3836 24.9482 21.6822 24.9482H24.6132C24.9118 24.9482 25.154 24.7061 25.154 24.4074V21.4873C25.154 21.1886 24.9118 20.9465 24.6132 20.9465Z" fill="#3B3B3D"/>
</svg>
