<svg width="38" height="38" viewBox="0 0 38 38" fill="none" xmlns="http://www.w3.org/2000/svg">
<rect width="38" height="38" rx="19" fill="#212121" fill-opacity="0.15"/>
<path d="M26.1394 21.1667H18.3503C16.6061 21.1667 15.1978 19.715 15.1978 17.9167V12.5C15.1978 10.7017 16.6061 9.25 18.3503 9.25H25.5219C27.2661 9.25 28.6744 10.7017 28.6744 12.5V19L29.2919 22.25L26.1394 21.1667Z" fill="#3B3B3D"/>
<path d="M22.0658 21.9467V26.2258C22.0658 27.7208 20.8958 28.9342 19.4442 28.9342H12.955L10.3333 29.8333L10.8425 27.125V21.7083C10.8425 20.2133 12.0233 19 13.4642 19H14.6992C14.8508 20.6575 16.1942 21.9467 17.8408 21.9467H22.0658Z" fill="#3B3B3D"/>
</svg>
