<svg width="39" height="38" viewBox="0 0 39 38" fill="none" xmlns="http://www.w3.org/2000/svg">
<rect x="0.5" width="38" height="38" rx="19" fill="#212121" fill-opacity="0.15"/>
<path d="M17.3153 10.4669V15.7556C17.3153 16.3505 16.8286 16.8372 16.2338 16.8372H10.9451C10.2854 16.8372 9.76623 16.2531 9.86356 15.6042C10.3827 12.4245 12.9027 9.90455 16.0824 9.38541C16.7313 9.27726 17.3153 9.80721 17.3153 10.4669Z" fill="#3B3B3D"/>
<path d="M9.84185 20.2222C10.4475 25.1107 14.6871 28.8744 19.7811 28.7338C24.8751 28.5932 29.0931 24.3644 29.2337 19.2812C29.3743 14.198 25.6106 9.95843 20.722 9.34196C20.0731 9.26625 19.4999 9.77457 19.4999 10.4235C19.4999 11.7321 19.4999 13.9168 19.4999 15.7554C19.4999 17.5508 18.0507 19 16.2553 19H10.9234C10.2745 19 9.76614 19.5732 9.84185 20.2222Z" fill="#3B3B3D"/>
</svg>
