<svg width="39" height="39" viewBox="0 0 39 39" fill="none" xmlns="http://www.w3.org/2000/svg">
<rect x="0.5" y="0.583374" width="38" height="38" rx="19" fill="white" fill-opacity="0.05"/>
<path d="M17.3153 11.0504V16.3391C17.3153 16.934 16.8286 17.4207 16.2338 17.4207H10.9451C10.2854 17.4207 9.76624 16.8366 9.86358 16.1877C10.3827 13.008 12.9027 10.488 16.0824 9.96891C16.7313 9.86076 17.3153 10.3907 17.3153 11.0504Z" stroke="white" stroke-opacity="0.65" stroke-width="1.5" stroke-linecap="round" stroke-linejoin="round"/>
<path d="M9.84184 20.8057C10.4475 25.6942 14.6871 29.4579 19.7811 29.3173C24.8751 29.1767 29.0931 24.9479 29.2337 19.8647C29.3743 14.7815 25.6106 10.5419 20.722 9.92545C20.0731 9.84975 19.4999 10.3581 19.4999 11.007C19.4999 12.3156 19.4999 14.5003 19.4999 16.3389C19.4999 18.1343 18.0507 19.5835 16.2553 19.5835H10.9234C10.2744 19.5835 9.76613 20.1567 9.84184 20.8057Z" stroke="white" stroke-opacity="0.65" stroke-width="1.5" stroke-linecap="round" stroke-linejoin="round"/>
</svg>
