<svg width="39" height="39" viewBox="0 0 39 39" fill="none" xmlns="http://www.w3.org/2000/svg">
<rect x="0.5" y="0.583374" width="38" height="38" rx="19" fill="white" fill-opacity="0.05"/>
<path d="M24.6781 21.2082C24.5589 21.5441 24.4289 21.8691 24.2556 22.1724L25.1872 23.1041C25.6422 23.5591 25.6422 24.2849 25.1872 24.7399L24.6564 25.2707C24.2014 25.7257 23.4756 25.7257 23.0206 25.2707L22.0889 24.3391C21.7856 24.5124 21.4606 24.6424 21.1247 24.7616V26.0182C21.1247 26.6574 20.6047 27.1666 19.9764 27.1666H19.0339C18.3947 27.1666 17.8856 26.6466 17.8856 26.0182V24.7616C17.5497 24.6424 17.2247 24.5124 16.9214 24.3391L15.9897 25.2707C15.5347 25.7257 14.8089 25.7257 14.3539 25.2707L13.8231 24.7399C13.3681 24.2849 13.3681 23.5591 13.8231 23.1041L14.7547 22.1724C14.5814 21.8691 14.4514 21.5441 14.3322 21.2082H13.0756C12.4364 21.2082 11.9272 20.6882 11.9272 20.0599V19.1174C11.9272 18.4782 12.4472 17.9691 13.0756 17.9691H14.3322C14.5056 17.6441 14.6356 17.3191 14.7547 17.0049L13.8231 16.0732C13.3681 15.6182 13.3681 14.8924 13.8231 14.4374L14.3539 13.9066C14.8089 13.4516 15.5347 13.4516 15.9897 13.9066L16.9214 14.8382C17.2247 14.6649 17.5497 14.5349 17.8856 14.4157V13.2132C17.8856 12.5524 18.4272 12.0107 19.0881 12.0107H19.9872C20.6264 12.0107 21.1356 12.5307 21.1356 13.1591V14.4157C21.4714 14.5349 21.7964 14.6649 22.0997 14.8382L23.0314 13.9066C23.4864 13.4516 24.2122 13.4516 24.6672 13.9066L25.1981 14.4374C25.6531 14.8924 25.6531 15.6182 25.1981 16.0732L24.2664 17.0049C24.4397 17.3082 24.5697 17.6332 24.6889 17.9691H25.9456C26.5847 17.9691 27.0939 18.4891 27.0939 19.1174V20.0599C27.0939 20.6991 26.5739 21.2082 25.9456 21.2082H24.6889H24.6781Z" stroke="white" stroke-opacity="0.65" stroke-width="1.5" stroke-linecap="round" stroke-linejoin="round"/>
<path d="M19.5 21.4794C20.5471 21.4794 21.3959 20.6306 21.3959 19.5836C21.3959 18.5365 20.5471 17.6877 19.5 17.6877C18.453 17.6877 17.6042 18.5365 17.6042 19.5836C17.6042 20.6306 18.453 21.4794 19.5 21.4794Z" stroke="white" stroke-opacity="0.65" stroke-width="1.5" stroke-linecap="round" stroke-linejoin="round"/>
</svg>
