<svg width="39" height="38" viewBox="0 0 39 38" fill="none" xmlns="http://www.w3.org/2000/svg">
<rect x="0.5" width="38" height="38" rx="19" fill="#212121" fill-opacity="0.15"/>
<path d="M25.935 17.3751H24.6784C24.5592 17.0392 24.4292 16.7142 24.2559 16.4109L25.1875 15.4792C25.6425 15.0242 25.6425 14.2984 25.1875 13.8434L24.6567 13.3126C24.2017 12.8576 23.4759 12.8576 23.0209 13.3126L22.0892 14.2442C21.7859 14.0709 21.4609 13.9409 21.125 13.8217V12.5651C21.125 11.9259 20.605 11.4167 19.9767 11.4167H19.0775C18.4167 11.4167 17.875 11.9584 17.875 12.6192V13.8217C17.5392 13.9409 17.2142 14.0709 16.9109 14.2442L15.9792 13.3126C15.5242 12.8576 14.7984 12.8576 14.3434 13.3126L13.8125 13.8434C13.3575 14.2984 13.3575 15.0242 13.8125 15.4792L14.7442 16.4109C14.625 16.7251 14.495 17.0501 14.3217 17.3751H13.065C12.4259 17.3751 11.9167 17.8951 11.9167 18.5234V19.4659C11.9167 20.1051 12.4367 20.6142 13.065 20.6142H14.3217C14.4409 20.9501 14.5709 21.2751 14.7442 21.5784L13.8125 22.5101C13.3575 22.9651 13.3575 23.6909 13.8125 24.1459L14.3434 24.6767C14.7984 25.1317 15.5242 25.1317 15.9792 24.6767L16.9109 23.7451C17.2142 23.9184 17.5392 24.0484 17.875 24.1676V25.4242C17.875 26.0634 18.395 26.5726 19.0234 26.5726H19.9659C20.605 26.5726 21.1142 26.0526 21.1142 25.4242V24.1676C21.45 24.0484 21.775 23.9184 22.0784 23.7451L23.01 24.6767C23.465 25.1317 24.1909 25.1317 24.6459 24.6767L25.1767 24.1459C25.6317 23.6909 25.6317 22.9651 25.1767 22.5101L24.245 21.5784C24.4184 21.2751 24.5484 20.9501 24.6675 20.6142H25.9242C26.5634 20.6142 27.0725 20.0942 27.0725 19.4659V18.5234C27.0725 17.8842 26.5525 17.3751 25.9242 17.3751H25.935ZM19.5 20.8959C18.4492 20.8959 17.6042 20.0509 17.6042 19.0001C17.6042 17.9492 18.4492 17.1042 19.5 17.1042C20.5509 17.1042 21.3959 17.9492 21.3959 19.0001C21.3959 20.0509 20.5509 20.8959 19.5 20.8959Z" fill="#3B3B3D"/>
</svg>
