<svg width="38" height="38" viewBox="0 0 38 38" fill="none" xmlns="http://www.w3.org/2000/svg">
<rect width="38" height="38" rx="19" fill="#212121" fill-opacity="0.15"/>
<path d="M26.4872 24.6542H26.471L20.8726 24.5839C20.6951 24.5816 20.5197 24.5444 20.3566 24.4744C20.1935 24.4044 20.0457 24.3029 19.9218 24.1758C19.7979 24.0486 19.7002 23.8983 19.6344 23.7335C19.5686 23.5686 19.5359 23.3924 19.5381 23.2148C19.5522 22.8597 19.7019 22.5234 19.9563 22.2751C20.2108 22.0269 20.5507 21.8857 20.9061 21.8804L25.2252 21.9345L25.5172 17.6089C25.5469 17.2555 25.7143 16.928 25.9833 16.6969C26.2522 16.4659 26.6012 16.3497 26.955 16.3735C27.3088 16.3974 27.6391 16.5593 27.8746 16.8243C28.1102 17.0894 28.2321 17.4364 28.2142 17.7906L27.8357 23.3889C27.814 23.7318 27.6624 24.0535 27.4119 24.2885C27.1614 24.5236 26.8307 24.6543 26.4872 24.6542Z" fill="#3B3B3D"/>
<path d="M26.4869 24.6544C26.3048 24.6538 26.1248 24.6165 25.9575 24.5445C25.7903 24.4726 25.6393 24.3676 25.5136 24.2359L16.8928 15.2149L14.1482 17.9616C13.89 18.2058 13.5481 18.3418 13.1928 18.3418C12.8374 18.3418 12.4956 18.2058 12.2373 17.9616L6.63896 12.3632C6.50982 12.2386 6.4068 12.0895 6.33591 11.9246C6.26502 11.7597 6.22768 11.5823 6.22607 11.4028C6.22446 11.2233 6.25861 11.0453 6.32653 10.8792C6.39445 10.713 6.49478 10.5621 6.62166 10.4351C6.74854 10.3082 6.89944 10.2078 7.06554 10.1397C7.23165 10.0717 7.40964 10.0375 7.58912 10.039C7.7686 10.0405 7.94599 10.0777 8.11093 10.1485C8.27587 10.2193 8.42505 10.3223 8.54978 10.4513L13.1922 15.0938L15.9595 12.3265C16.2238 12.0786 16.5705 11.9372 16.9328 11.9296C17.113 11.9319 17.2909 11.97 17.4562 12.0419C17.6214 12.1137 17.7707 12.2179 17.8952 12.3481L27.4677 22.3694C27.6505 22.5609 27.773 22.8019 27.8201 23.0624C27.8671 23.3229 27.8366 23.5915 27.7324 23.8348C27.6282 24.0782 27.4548 24.2856 27.2338 24.4313C27.0127 24.577 26.7538 24.6545 26.4891 24.6544H26.4869Z" fill="#3B3B3D"/>
</svg>
