<svg viewBox="0 0 101 101" fill="none" xmlns="http://www.w3.org/2000/svg">
<rect x="0.5" y="0.083374" width="100" height="100" rx="50" fill="#B1FC03"/>
<path d="M32.3916 76.2494C35.0012 76.2494 37.1166 74.2906 37.1166 71.8744C37.1166 69.4581 35.0012 67.4994 32.3916 67.4994C29.7821 67.4994 27.6666 69.4581 27.6666 71.8744C27.6666 74.2906 29.7821 76.2494 32.3916 76.2494Z" fill="#212121"/>
<path d="M50.9999 29.5828C39.7124 29.5828 30.5833 38.0703 30.5833 48.5411C30.5833 59.0119 39.7124 67.4994 50.9999 67.4994C62.2874 67.4994 71.4166 59.0119 71.4166 48.5411C71.4166 38.0703 62.2874 29.5828 50.9999 29.5828ZM49.5416 55.8328H41.5208C40.7041 55.8328 40.0624 55.1911 40.0624 54.3744C40.0624 53.5578 40.7041 52.9161 41.5208 52.9161H49.5416C50.3583 52.9161 50.9999 53.5578 50.9999 54.3744C50.9999 55.1911 50.3583 55.8328 49.5416 55.8328ZM57.5624 47.0828H41.5208C40.7041 47.0828 40.0624 46.4411 40.0624 45.6244C40.0624 44.8078 40.7041 44.1661 41.5208 44.1661H57.5624C58.3791 44.1661 59.0208 44.8078 59.0208 45.6244C59.0208 46.4411 58.3791 47.0828 57.5624 47.0828Z" fill="#212121"/>
</svg>
