<svg width="59" height="59" viewBox="0 0 59 59" fill="none" xmlns="http://www.w3.org/2000/svg">
<rect x="1.30672" y="1.47408" width="56.3866" height="56.3866" rx="9.93697" fill="#EAEAEA"/>
<g clip-path="url(#clip0_1_887)">
<path d="M29.1781 29.667C29.1781 27.6255 30.8337 25.9706 32.8761 25.9706C34.9185 25.9706 36.5741 27.6255 36.5741 29.667C36.5741 31.7085 34.9185 33.3634 32.8761 33.3634C30.8337 33.3634 29.1781 31.7085 29.1781 29.667Z" fill="#18B6F6"/>
<path d="M21.782 37.0598C21.782 35.0184 23.4377 33.3634 25.4801 33.3634H29.1781V37.0598C29.1781 39.1013 27.5225 40.7563 25.4801 40.7563C23.4377 40.7563 21.782 39.1013 21.782 37.0598Z" fill="#06C97F"/>
<path d="M29.1781 18.5778V25.9706H32.8761C34.9185 25.9706 36.5741 24.3157 36.5741 22.2742C36.5741 20.2327 34.9185 18.5778 32.8761 18.5778H29.1781Z" fill="#F76E60"/>
<path d="M21.782 22.2743C21.782 24.3158 23.4376 25.9707 25.48 25.9707H29.178V18.5779H25.48C23.4376 18.5779 21.782 20.2328 21.782 22.2743Z" fill="#EA4B1B"/>
<path d="M21.782 29.667C21.782 31.7085 23.4377 33.3634 25.4801 33.3634H29.1781V25.9706H25.4801C23.4377 25.9706 21.782 27.6255 21.782 29.667Z" fill="#9C56F6"/>
</g>
<rect x="1.30672" y="1.47408" width="56.3866" height="56.3866" rx="9.93697" stroke="#F5F5F5" stroke-width="1.38655"/>
<defs>
<clipPath id="clip0_1_887">
<rect width="15.3333" height="23" fill="white" transform="translate(21.5 18.1674)"/>
</clipPath>
</defs>
</svg>
