<svg width="643" height="655" viewBox="0 0 643 655" fill="none" xmlns="http://www.w3.org/2000/svg">
<g clip-path="url(#clip0_1_786)">
<path d="M0 30.5833C0 14.0148 13.4315 0.583344 30 0.583344H655V654.083H30C13.4315 654.083 0 640.652 0 624.083V30.5833Z" fill="#F0F0F0"/>
<g filter="url(#filter0_di_1_786)">
<rect x="35" y="35.5833" width="97.5" height="97.5" rx="24.375" fill="#F7F7F7" shape-rendering="crispEdges"/>
<path d="M93.3496 97.2664H73.3496C71.5162 97.2664 70.0162 95.7664 70.0162 93.933V78.933C70.0162 77.883 70.5162 76.8997 71.3496 76.2664L82.3496 68.0164C82.9496 67.5664 83.7496 67.5664 84.3496 68.0164L95.3496 76.2664C96.1829 76.8997 96.6829 77.883 96.6829 78.933V93.933C96.6829 95.7664 95.1829 97.2664 93.3496 97.2664Z" stroke="#3B3B3D" stroke-width="2.5" stroke-miterlimit="10"/>
<path d="M79.0828 97.2664V90.4164C79.0828 88.0664 80.9828 86.1497 83.3494 86.1497C85.6994 86.1497 87.6161 88.0497 87.6161 90.4164V97.2664" stroke="#3B3B3D" stroke-width="2.5" stroke-miterlimit="10"/>
<rect x="33.4766" y="34.0599" width="100.547" height="100.547" rx="25.8984" stroke="white" stroke-opacity="0.8" stroke-width="3.04688" shape-rendering="crispEdges"/>
</g>
<g filter="url(#filter1_di_1_786)">
<rect x="156.875" y="35.5833" width="97.5" height="97.5" rx="24.375" fill="#F7F7F7" shape-rendering="crispEdges"/>
<path d="M215.958 87.7079C215.729 88.3537 215.479 88.9787 215.145 89.562L216.416 90.8329C217.562 91.9787 217.562 93.8537 216.416 94.9995C215.27 96.1454 213.395 96.1454 212.25 94.9995L210.979 93.7287C210.395 94.062 209.77 94.312 209.125 94.5412V96.2287C209.125 97.8537 207.812 99.1662 206.187 99.1662H205.833C204.208 99.1662 202.895 97.8537 202.895 96.2287V94.5412C202.458 94.3329 201.875 94.1037 201.041 93.7287L199.77 94.9995C198.625 96.1454 196.75 96.1454 195.604 94.9995C194.458 93.8537 194.458 91.9787 195.604 90.8329L196.875 89.562C196.541 88.9787 196.291 88.3537 196.062 87.7079H194.375C192.75 87.7079 191.437 86.3954 191.437 84.7704V84.4162C191.437 82.7912 192.75 81.4787 194.375 81.4787H196.062C196.291 80.8329 196.541 80.2079 196.875 79.6245L195.604 78.3537C194.458 77.2079 194.458 75.3329 195.604 74.187C196.75 73.0412 198.625 73.0412 199.77 74.187L201.041 75.4579C201.625 75.1245 202.25 74.8745 202.895 74.6454V72.9579C202.895 71.3329 204.208 70.0204 205.833 70.0204H206.187C207.812 70.0204 209.125 71.3329 209.125 72.9579V74.6454C209.77 74.8745 210.395 75.1245 210.979 75.4579L212.25 74.187C213.395 73.0412 215.27 73.0412 216.416 74.187C217.562 75.3329 217.562 77.2079 216.416 78.3537L215.145 79.6245C215.479 80.2079 215.729 80.8329 215.958 81.4787H217.645C219.27 81.4787 220.583 82.7912 220.583 84.4162V84.7704C220.583 86.3954 219.27 87.7079 217.645 87.7079H215.958Z" stroke="#3B3B3D" stroke-width="2.5" stroke-linecap="round" stroke-linejoin="round"/>
<path d="M206 88.75C208.301 88.75 210.167 86.8845 210.167 84.5834C210.167 82.2822 208.301 80.4167 206 80.4167C203.699 80.4167 201.833 82.2822 201.833 84.5834C201.833 86.8845 203.699 88.75 206 88.75Z" stroke="#3B3B3D" stroke-width="2.5" stroke-linecap="round" stroke-linejoin="round"/>
<rect x="155.352" y="34.0599" width="100.547" height="100.547" rx="25.8984" stroke="white" stroke-opacity="0.8" stroke-width="3.04688" shape-rendering="crispEdges"/>
</g>
<g filter="url(#filter2_di_1_786)">
<rect x="278.75" y="35.5833" width="97.5" height="97.5" rx="24.375" fill="#F7F7F7" shape-rendering="crispEdges"/>
<path d="M324.667 91.25C330.189 91.25 334.667 86.7728 334.667 81.25C334.667 75.7272 330.189 71.25 324.667 71.25C319.144 71.25 314.667 75.7272 314.667 81.25C314.667 86.7728 319.144 91.25 324.667 91.25Z" stroke="#3B3B3D" stroke-width="2.5" stroke-miterlimit="10"/>
<path d="M331.717 88.3333L339.667 96.25" stroke="#3B3B3D" stroke-width="2.5" stroke-miterlimit="10" stroke-linecap="round"/>
<path d="M323.95 86.133C321.65 86.2497 319.683 84.4997 319.567 82.1997" stroke="#3B3B3D" stroke-width="2.5" stroke-miterlimit="10" stroke-linecap="round"/>
<rect x="277.227" y="34.0599" width="100.547" height="100.547" rx="25.8984" stroke="white" stroke-opacity="0.8" stroke-width="3.04688" shape-rendering="crispEdges"/>
</g>
<g filter="url(#filter3_di_1_786)">
<rect x="400.625" y="35.5833" width="97.5" height="97.5" rx="24.375" fill="#F7F7F7" shape-rendering="crispEdges"/>
<path d="M456.333 81.3449V86.4782C456.333 86.7616 456.4 87.0282 456.533 87.2782L458.35 90.6449C458.95 91.7449 458.133 93.0949 456.883 93.0949H439.117C437.867 93.0949 437.05 91.7449 437.65 90.6449L439.467 87.2782C439.6 87.0282 439.667 86.7616 439.667 86.4782V79.6782C439.667 75.1282 443.367 71.4282 447.917 71.4282H448.083C450.217 71.4282 452.133 72.2449 453.6 73.5616" stroke="#3B3B3D" stroke-width="2.5" stroke-miterlimit="10"/>
<path d="M443.433 93.0949C443.65 95.4282 445.6 97.2616 448 97.2616C450.4 97.2616 452.35 95.4282 452.566 93.0949" stroke="#3B3B3D" stroke-width="2.5" stroke-miterlimit="10"/>
<path d="M451.267 72.0615C451.317 71.8615 451.333 71.6449 451.333 71.4282C451.333 69.5949 449.833 68.0949 448 68.0949C446.167 68.0949 444.667 69.5949 444.667 71.4282C444.667 71.6449 444.683 71.8615 444.733 72.0615" stroke="#3B3B3D" stroke-width="2.5" stroke-miterlimit="10"/>
<path d="M455.5 81.4282C457.801 81.4282 459.667 79.5628 459.667 77.2616C459.667 74.9604 457.801 73.0949 455.5 73.0949C453.199 73.0949 451.333 74.9604 451.333 77.2616C451.333 79.5628 453.199 81.4282 455.5 81.4282Z" stroke="#3B3B3D" stroke-width="2.5" stroke-miterlimit="10"/>
<rect x="399.102" y="34.0599" width="100.547" height="100.547" rx="25.8984" stroke="white" stroke-opacity="0.8" stroke-width="3.04688" shape-rendering="crispEdges"/>
</g>
<g filter="url(#filter4_di_1_786)">
<rect x="522.5" y="35.5833" width="97.5" height="97.5" rx="24.375" fill="#F7F7F7" shape-rendering="crispEdges"/>
<path d="M571 80.8335C573.761 80.8335 576 78.595 576 75.8335C576 73.0721 573.761 70.8335 571 70.8335C568.239 70.8335 566 73.0721 566 75.8335C566 78.595 568.239 80.8335 571 80.8335Z" stroke="#3B3B3D" stroke-width="2.5" stroke-miterlimit="10"/>
<path d="M571 85.8334C577.9 85.8334 583.5 91.4334 583.5 98.3334H558.5C558.5 91.4334 564.1 85.8334 571 85.8334Z" stroke="#3B3B3D" stroke-width="2.5" stroke-linejoin="round"/>
<rect x="520.977" y="34.0599" width="100.547" height="100.547" rx="25.8984" stroke="white" stroke-opacity="0.8" stroke-width="3.04688" shape-rendering="crispEdges"/>
</g>
<g filter="url(#filter5_di_1_786)">
<rect x="156.875" y="157.083" width="97.5" height="97.5" rx="24.375" fill="#F7F7F7" shape-rendering="crispEdges"/>
<path d="M219.464 201.512C219.464 208.875 207.652 217.23 205.965 217.23C204.278 217.23 192.537 208.875 192.537 201.512C192.536 199.945 193.021 198.416 193.926 197.136C194.83 195.857 196.11 194.89 197.588 194.369C199.066 193.848 200.669 193.799 202.176 194.228C203.683 194.657 205.02 195.544 206.001 196.765C206.705 195.879 207.601 195.164 208.621 194.675C209.641 194.185 210.759 193.932 211.891 193.937C212.886 193.935 213.871 194.13 214.791 194.511C215.71 194.891 216.546 195.449 217.249 196.153C217.953 196.856 218.51 197.692 218.89 198.611C219.27 199.531 219.465 200.517 219.464 201.512Z" fill="#3B3B3D"/>
<rect x="155.352" y="155.56" width="100.547" height="100.547" rx="25.8984" stroke="white" stroke-opacity="0.8" stroke-width="3.04688" shape-rendering="crispEdges"/>
</g>
<g filter="url(#filter6_di_1_786)">
<rect x="278.75" y="157.083" width="97.5" height="97.5" rx="24.375" fill="#F7F7F7" shape-rendering="crispEdges"/>
<path d="M331.812 218.797L341.745 212.757V195.752V190.078L331.812 195.752L321.895 190.078V195.752V212.757V195.752V190.078L311.978 195.752V212.757V218.431L321.895 212.757L331.812 218.797V212.757V195.752V212.757" fill="#3B3B3D"/>
<rect x="277.227" y="155.56" width="100.547" height="100.547" rx="25.8984" stroke="white" stroke-opacity="0.8" stroke-width="3.04688" shape-rendering="crispEdges"/>
</g>
<g filter="url(#filter7_di_1_786)">
<rect x="400.625" y="157.083" width="97.5" height="97.5" rx="24.375" fill="#F7F7F7" shape-rendering="crispEdges"/>
<path d="M449 191.254C441.43 191.254 436.687 199.448 440.473 206.021L449 220.788L457.528 206.021C461.313 199.469 456.571 191.254 449 191.254ZM449 204.918C446.712 204.918 444.841 203.046 444.841 200.759C444.841 198.471 446.712 196.599 449 196.599C451.288 196.599 453.16 198.471 453.16 200.759C453.16 203.046 451.288 204.918 449 204.918Z" fill="#3B3B3D"/>
<rect x="399.102" y="155.56" width="100.547" height="100.547" rx="25.8984" stroke="white" stroke-opacity="0.8" stroke-width="3.04688" shape-rendering="crispEdges"/>
</g>
<g filter="url(#filter8_di_1_786)">
<rect x="35" y="278.583" width="97.5" height="97.5" rx="24.375" fill="#F7F7F7" shape-rendering="crispEdges"/>
<path d="M83.0566 324.007C84.8975 324.007 86.3899 322.515 86.3899 320.674C86.3899 318.833 84.8975 317.34 83.0566 317.34C81.2157 317.34 79.7233 318.833 79.7233 320.674C79.7233 322.515 81.2157 324.007 83.0566 324.007Z" stroke="#3B3B3D" stroke-width="2.5" stroke-miterlimit="10"/>
<path d="M74.7233 335.674C74.7233 331.074 78.4566 327.341 83.0566 327.341C87.6566 327.341 91.3899 331.074 91.3899 335.674" stroke="#3B3B3D" stroke-width="2.5" stroke-miterlimit="10"/>
<path d="M91.8902 325.507C93.3629 325.507 94.5568 324.314 94.5568 322.841C94.5568 321.368 93.3629 320.174 91.8902 320.174C90.4174 320.174 89.2235 321.368 89.2235 322.841C89.2235 324.314 90.4174 325.507 91.8902 325.507Z" stroke="#3B3B3D" stroke-width="2.5" stroke-miterlimit="10"/>
<path d="M88.3236 329.224C89.3569 328.557 90.5903 328.174 91.8903 328.174C93.7236 328.174 95.3903 328.924 96.6069 330.124C97.8069 331.34 98.5569 333.007 98.5569 334.84" stroke="#3B3B3D" stroke-width="2.5" stroke-miterlimit="10"/>
<path d="M74.2234 325.507C75.6962 325.507 76.8901 324.314 76.8901 322.841C76.8901 321.368 75.6962 320.174 74.2234 320.174C72.7507 320.174 71.5568 321.368 71.5568 322.841C71.5568 324.314 72.7507 325.507 74.2234 325.507Z" stroke="#3B3B3D" stroke-width="2.5" stroke-miterlimit="10"/>
<path d="M67.557 334.84C67.557 331.157 70.5403 328.174 74.2237 328.174C75.5237 328.174 76.757 328.557 77.7903 329.224" stroke="#3B3B3D" stroke-width="2.5" stroke-miterlimit="10"/>
<rect x="33.4766" y="277.06" width="100.547" height="100.547" rx="25.8984" stroke="white" stroke-opacity="0.8" stroke-width="3.04688" shape-rendering="crispEdges"/>
</g>
<g filter="url(#filter9_di_1_786)">
<rect x="156.875" y="278.583" width="97.5" height="97.5" rx="24.375" fill="#F7F7F7" shape-rendering="crispEdges"/>
<path d="M193.903 327.318L218.096 319.63L209.627 343.64L206.599 330.828L193.903 327.318Z" stroke="#3B3B3D" stroke-width="2.5" stroke-linecap="round" stroke-linejoin="round"/>
<rect x="155.352" y="277.06" width="100.547" height="100.547" rx="25.8984" stroke="white" stroke-opacity="0.8" stroke-width="3.04688" shape-rendering="crispEdges"/>
</g>
<g filter="url(#filter10_di_1_786)">
<rect x="278.75" y="278.583" width="97.5" height="97.5" rx="24.375" fill="#F7F7F7" shape-rendering="crispEdges"/>
<path d="M320.645 334.654H316.319V342.524H320.645V334.654Z" stroke="#3B3B3D" stroke-width="2.49579" stroke-linecap="round" stroke-linejoin="round"/>
<path d="M330.163 342.475L330.13 326.851H325.837V342.475H330.163Z" stroke="#3B3B3D" stroke-width="2.49579" stroke-linecap="round" stroke-linejoin="round"/>
<path d="M339.613 320.894H335.287V342.524H339.613V320.894Z" stroke="#3B3B3D" stroke-width="2.49579" stroke-linecap="round" stroke-linejoin="round"/>
<path d="M336.585 314.355L320.196 325.786" stroke="#3B3B3D" stroke-width="1.66386" stroke-linecap="round" stroke-linejoin="round"/>
<path d="M318.815 328.382C319.734 328.382 320.479 327.637 320.479 326.718C320.479 325.799 319.734 325.054 318.815 325.054C317.896 325.054 317.151 325.799 317.151 326.718C317.151 327.637 317.896 328.382 318.815 328.382Z" stroke="#3B3B3D" stroke-width="1.66386" stroke-linecap="round" stroke-linejoin="round"/>
<path d="M337.95 315.071C338.868 315.071 339.613 314.326 339.613 313.407C339.613 312.488 338.868 311.743 337.95 311.743C337.031 311.743 336.286 312.488 336.286 313.407C336.286 314.326 337.031 315.071 337.95 315.071Z" stroke="#3B3B3D" stroke-width="1.66386" stroke-linecap="round" stroke-linejoin="round"/>
<rect x="277.227" y="277.06" width="100.547" height="100.547" rx="25.8984" stroke="white" stroke-opacity="0.8" stroke-width="3.04688" shape-rendering="crispEdges"/>
</g>
<g filter="url(#filter11_di_1_786)">
<rect x="400.625" y="278.583" width="97.5" height="97.5" rx="24.375" fill="#F7F7F7" shape-rendering="crispEdges"/>
<path d="M459.15 330.917H447.167C444.484 330.917 442.317 328.683 442.317 325.917V317.583C442.317 314.817 444.484 312.583 447.167 312.583H458.2C460.884 312.583 463.05 314.817 463.05 317.583V327.583L464 332.583L459.15 330.917Z" stroke="#3B3B3D" stroke-width="2.5" stroke-linejoin="round"/>
<path d="M453.717 330.917V337.033C453.717 339.333 451.917 341.2 449.683 341.2H439.7L435.667 342.583L436.45 338.417V330.083C436.45 327.783 438.267 325.917 440.483 325.917H442.333" stroke="#3B3B3D" stroke-width="2.5" stroke-linejoin="round"/>
<rect x="399.102" y="277.06" width="100.547" height="100.547" rx="25.8984" stroke="white" stroke-opacity="0.8" stroke-width="3.04688" shape-rendering="crispEdges"/>
</g>
<g filter="url(#filter12_di_1_786)">
<rect x="522.5" y="278.583" width="97.5" height="97.5" rx="24.375" fill="#F7F7F7" shape-rendering="crispEdges"/>
<path d="M568.731 316.054H559.471V325.289H568.731V316.054Z" stroke="#3B3B3D" stroke-width="2.5" stroke-linecap="round" stroke-linejoin="round"/>
<path d="M568.731 333.076H559.471V342.311H568.731V333.076Z" stroke="#3B3B3D" stroke-width="2.5" stroke-linecap="round" stroke-linejoin="round"/>
<path d="M586.202 316.054H576.942V325.289H586.202V316.054Z" stroke="#3B3B3D" stroke-width="2.5" stroke-linecap="round" stroke-linejoin="round"/>
<path d="M586.202 333.076H576.942V342.311H586.202V333.076Z" stroke="#3B3B3D" stroke-width="2.5" stroke-linecap="round" stroke-linejoin="round"/>
<rect x="520.977" y="277.06" width="100.547" height="100.547" rx="25.8984" stroke="white" stroke-opacity="0.8" stroke-width="3.04688" shape-rendering="crispEdges"/>
</g>
<g filter="url(#filter13_di_1_786)">
<rect x="156.875" y="400.083" width="97.5" height="97.5" rx="24.375" fill="#F7F7F7" shape-rendering="crispEdges"/>
<path d="M215.109 428.093H193.91C188.717 428.093 184.51 432.3 184.51 437.494V458.692C184.51 463.886 188.717 468.093 193.91 468.093H215.109C220.303 468.093 224.51 463.886 224.51 458.692V437.494C224.51 432.3 220.303 428.093 215.109 428.093ZM217.06 458.199C217.741 458.88 217.741 460.009 217.06 460.69C216.707 461.043 216.261 461.207 215.814 461.207C215.368 461.207 214.921 461.043 214.569 460.69L204.51 450.608L194.428 460.667C194.075 461.019 193.628 461.184 193.182 461.184C192.735 461.184 192.289 461.019 191.936 460.667C191.255 459.985 191.255 458.857 191.936 458.175L202.019 448.117L191.96 438.034C191.278 437.353 191.278 436.225 191.96 435.543C192.641 434.862 193.769 434.862 194.451 435.543L204.51 445.625L214.592 435.567C215.274 434.885 216.402 434.885 217.083 435.567C217.765 436.248 217.765 437.376 217.083 438.058L207.001 448.117L217.06 458.199Z" fill="#3B3B3D"/>
<rect x="155.352" y="398.56" width="100.547" height="100.547" rx="25.8984" stroke="white" stroke-opacity="0.8" stroke-width="3.04688" shape-rendering="crispEdges"/>
</g>
<g filter="url(#filter14_di_1_786)">
<rect x="278.75" y="400.083" width="97.5" height="97.5" rx="24.375" fill="#F7F7F7" shape-rendering="crispEdges"/>
<path d="M328 444.833C330.761 444.833 333 442.595 333 439.833C333 437.072 330.761 434.833 328 434.833C325.239 434.833 323 437.072 323 439.833C323 442.595 325.239 444.833 328 444.833Z" fill="#3B3B3D"/>
<path d="M315.5 462.333C315.5 459.018 316.817 455.839 319.161 453.495C321.505 451.15 324.685 449.833 328 449.833C331.315 449.833 334.495 451.15 336.839 453.495C339.183 455.839 340.5 459.018 340.5 462.333" fill="#3B3B3D"/>
<path d="M339.668 444.001C339.504 444.002 339.341 443.969 339.189 443.907C339.037 443.844 338.899 443.752 338.783 443.636L337.115 441.969C336.881 441.734 336.749 441.416 336.749 441.084C336.749 440.752 336.881 440.433 337.115 440.199C337.35 439.964 337.668 439.832 338 439.832C338.332 439.832 338.651 439.964 338.885 440.199L339.668 440.984L342.115 438.531C342.35 438.297 342.668 438.165 343 438.165C343.332 438.165 343.651 438.297 343.885 438.531C344.12 438.766 344.252 439.084 344.252 439.416C344.252 439.748 344.12 440.067 343.885 440.301L340.553 443.636C340.437 443.752 340.299 443.844 340.147 443.907C339.995 443.969 339.832 444.002 339.668 444.001Z" fill="#3B3B3D"/>
<rect x="277.227" y="398.56" width="100.547" height="100.547" rx="25.8984" stroke="white" stroke-opacity="0.8" stroke-width="3.04688" shape-rendering="crispEdges"/>
</g>
<g filter="url(#filter15_di_1_786)">
<rect x="400.625" y="400.083" width="97.5" height="97.5" rx="24.375" fill="#F7F7F7" shape-rendering="crispEdges"/>
<g clip-path="url(#clip1_1_786)">
<path d="M460.12 446.616C459.593 446.615 459.086 446.415 458.702 446.055C458.317 445.694 458.083 445.202 458.047 444.676L457.598 438.022L450.953 438.105H450.928C450.655 438.106 450.385 438.054 450.132 437.951C449.879 437.849 449.648 437.697 449.454 437.505C449.26 437.313 449.105 437.085 448.999 436.833C448.893 436.582 448.837 436.311 448.835 436.038C448.834 435.765 448.886 435.495 448.989 435.242C449.092 434.989 449.243 434.758 449.435 434.564C449.627 434.37 449.855 434.215 450.107 434.109C450.359 434.003 450.629 433.947 450.902 433.945L459.515 433.844C460.047 433.835 460.563 434.031 460.954 434.393C461.345 434.754 461.581 435.252 461.614 435.784L462.197 444.397C462.234 444.947 462.05 445.489 461.688 445.905C461.325 446.32 460.812 446.574 460.262 446.611C460.215 446.614 460.167 446.616 460.12 446.616Z" fill="#3B3B3D"/>
<path d="M430.475 456.304C430.064 456.304 429.662 456.182 429.32 455.953C428.978 455.725 428.711 455.4 428.553 455.02C428.396 454.64 428.355 454.222 428.435 453.818C428.515 453.415 428.714 453.044 429.004 452.753L437.617 444.141C438.007 443.751 438.535 443.532 439.086 443.532C439.359 443.532 439.63 443.585 439.882 443.69C440.135 443.794 440.364 443.947 440.557 444.141L444.78 448.366L458.036 434.488C458.417 434.089 458.94 433.857 459.492 433.844C460.043 433.831 460.577 434.038 460.976 434.419C461.375 434.8 461.607 435.323 461.62 435.875C461.633 436.426 461.426 436.96 461.045 437.359L446.322 452.777C446.13 452.977 445.901 453.137 445.646 453.248C445.392 453.358 445.118 453.417 444.841 453.421C444.283 453.414 443.748 453.196 443.344 452.81L439.086 448.553L431.944 455.695C431.752 455.888 431.523 456.041 431.27 456.146C431.018 456.25 430.748 456.304 430.475 456.304Z" fill="#3B3B3D"/>
</g>
<rect x="399.102" y="398.56" width="100.547" height="100.547" rx="25.8984" stroke="white" stroke-opacity="0.8" stroke-width="3.04688" shape-rendering="crispEdges"/>
</g>
<g filter="url(#filter16_di_1_786)">
<rect x="35" y="521.583" width="97.5" height="97.5" rx="24.375" fill="#F7F7F7" shape-rendering="crispEdges"/>
<path d="M77.7104 566.79C79.0889 566.79 80.2063 565.672 80.2063 564.294C80.2063 562.915 79.0889 561.798 77.7104 561.798C76.332 561.798 75.2146 562.915 75.2146 564.294C75.2146 565.672 76.332 566.79 77.7104 566.79Z" stroke="#3B3B3D" stroke-width="2" stroke-linecap="round" stroke-linejoin="round"/>
<path d="M84 574.277C85.3784 574.277 86.4958 573.16 86.4958 571.781C86.4958 570.403 85.3784 569.286 84 569.286C82.6216 569.286 81.5042 570.403 81.5042 571.781C81.5042 573.16 82.6216 574.277 84 574.277Z" stroke="#3B3B3D" stroke-width="2" stroke-linecap="round" stroke-linejoin="round"/>
<path d="M80.2063 564.294H92.6855" stroke="#3B3B3D" stroke-width="2" stroke-linecap="round" stroke-linejoin="round"/>
<path d="M90.1897 581.765C91.5681 581.765 92.6855 580.647 92.6855 579.269C92.6855 577.89 91.5681 576.773 90.1897 576.773C88.8113 576.773 87.6938 577.89 87.6938 579.269C87.6938 580.647 88.8113 581.765 90.1897 581.765Z" stroke="#3B3B3D" stroke-width="2" stroke-linecap="round" stroke-linejoin="round"/>
<path d="M87.6938 579.269H75.2146" stroke="#3B3B3D" stroke-width="2" stroke-linecap="round" stroke-linejoin="round"/>
<path d="M81.4542 571.781H75.2146" stroke="#3B3B3D" stroke-width="2" stroke-linecap="round" stroke-linejoin="round"/>
<path d="M92.6855 571.781H86.4958" stroke="#3B3B3D" stroke-width="2" stroke-linecap="round" stroke-linejoin="round"/>
<rect x="33.4766" y="520.06" width="100.547" height="100.547" rx="25.8984" stroke="white" stroke-opacity="0.8" stroke-width="3.04688" shape-rendering="crispEdges"/>
</g>
<g filter="url(#filter17_di_1_786)">
<rect x="156.875" y="521.583" width="97.5" height="97.5" rx="24.375" fill="#F7F7F7" shape-rendering="crispEdges"/>
<path d="M206 553.085C212.9 553.085 218.5 558.685 218.5 565.585V580.585H193.5V565.585C193.5 558.685 199.1 553.085 206 553.085Z" stroke="#3B3B3D" stroke-width="2.5" stroke-linejoin="round"/>
<path d="M199.75 581.21C199.75 584.66 202.55 587.46 206 587.46C209.45 587.46 212.25 584.66 212.25 581.21" stroke="#3B3B3D" stroke-width="2.5" stroke-miterlimit="10"/>
<rect x="155.352" y="520.06" width="100.547" height="100.547" rx="25.8984" stroke="white" stroke-opacity="0.8" stroke-width="3.04688" shape-rendering="crispEdges"/>
</g>
<g filter="url(#filter18_di_1_786)">
<rect x="278.75" y="521.583" width="97.5" height="97.5" rx="24.375" fill="#F7F7F7" shape-rendering="crispEdges"/>
<path d="M328 586.39C336.729 586.39 343.806 579.313 343.806 570.583C343.806 561.853 336.729 554.776 328 554.776C319.27 554.776 312.193 561.853 312.193 570.583C312.193 579.313 319.27 586.39 328 586.39Z" stroke="#3B3B3D" stroke-width="2.49579" stroke-linecap="round" stroke-linejoin="round"/>
<path d="M317.185 581.398L339.613 558.903" stroke="#3B3B3D" stroke-width="2.49579" stroke-linejoin="round"/>
<rect x="277.227" y="520.06" width="100.547" height="100.547" rx="25.8984" stroke="white" stroke-opacity="0.8" stroke-width="3.04688" shape-rendering="crispEdges"/>
</g>
<g filter="url(#filter19_di_1_786)">
<rect x="400.625" y="521.583" width="97.5" height="97.5" rx="24.375" fill="#F7F7F7" shape-rendering="crispEdges"/>
<path d="M448.999 585.351L457.526 570.584C461.312 564.032 456.569 555.816 448.999 555.816C441.428 555.816 436.686 564.011 440.471 570.584L448.999 585.351Z" stroke="#3B3B3D" stroke-width="2.07989" stroke-linecap="round" stroke-linejoin="round"/>
<path d="M448.998 569.502C451.296 569.502 453.158 567.64 453.158 565.342C453.158 563.045 451.296 561.183 448.998 561.183C446.701 561.183 444.839 563.045 444.839 565.342C444.839 567.64 446.701 569.502 448.998 569.502Z" stroke="#3B3B3D" stroke-width="2.07989" stroke-linecap="round" stroke-linejoin="round"/>
<path d="M434.959 552.052L463.433 580.712" stroke="#3B3B3D" stroke-width="2.07989" stroke-linecap="round" stroke-linejoin="round"/>
<rect x="399.102" y="520.06" width="100.547" height="100.547" rx="25.8984" stroke="white" stroke-opacity="0.8" stroke-width="3.04688" shape-rendering="crispEdges"/>
</g>
<g filter="url(#filter20_di_1_786)">
<rect x="522.5" y="521.583" width="97.5" height="97.5" rx="24.375" fill="#F7F7F7" shape-rendering="crispEdges"/>
<path d="M567.639 552.455V560.592C567.639 561.507 566.89 562.256 565.975 562.256H557.838C556.824 562.256 556.025 561.357 556.175 560.359C556.973 555.467 560.85 551.59 565.742 550.792C566.74 550.625 567.639 551.441 567.639 552.455Z" stroke="#3B3B3D" stroke-width="2.49579" stroke-linecap="round" stroke-linejoin="round"/>
<path d="M556.141 567.463C557.073 574.984 563.595 580.774 571.432 580.558C579.269 580.341 585.758 573.836 585.974 566.015C586.19 558.195 580.4 551.673 572.88 550.725C571.881 550.608 570.999 551.39 570.999 552.388C570.999 554.402 570.999 557.763 570.999 560.591C570.999 563.353 568.77 565.583 566.008 565.583H557.805C556.807 565.583 556.025 566.465 556.141 567.463Z" stroke="#3B3B3D" stroke-width="2.49579" stroke-linecap="round" stroke-linejoin="round"/>
<rect x="520.977" y="520.06" width="100.547" height="100.547" rx="25.8984" stroke="white" stroke-opacity="0.8" stroke-width="3.04688" shape-rendering="crispEdges"/>
</g>
</g>
<defs>
<filter id="filter0_di_1_786" x="-28.9844" y="-16.2135" width="225.469" height="225.469" filterUnits="userSpaceOnUse" color-interpolation-filters="sRGB">
<feFlood flood-opacity="0" result="BackgroundImageFix"/>
<feColorMatrix in="SourceAlpha" type="matrix" values="0 0 0 0 0 0 0 0 0 0 0 0 0 0 0 0 0 0 127 0" result="hardAlpha"/>
<feOffset dy="12.1875"/>
<feGaussianBlur stdDeviation="30.4688"/>
<feComposite in2="hardAlpha" operator="out"/>
<feColorMatrix type="matrix" values="0 0 0 0 0 0 0 0 0 0 0 0 0 0 0 0 0 0 0.1 0"/>
<feBlend mode="normal" in2="BackgroundImageFix" result="effect1_dropShadow_1_786"/>
<feBlend mode="normal" in="SourceGraphic" in2="effect1_dropShadow_1_786" result="shape"/>
<feColorMatrix in="SourceAlpha" type="matrix" values="0 0 0 0 0 0 0 0 0 0 0 0 0 0 0 0 0 0 127 0" result="hardAlpha"/>
<feOffset dy="4.875"/>
<feGaussianBlur stdDeviation="12.1875"/>
<feComposite in2="hardAlpha" operator="arithmetic" k2="-1" k3="1"/>
<feColorMatrix type="matrix" values="0 0 0 0 0 0 0 0 0 0 0 0 0 0 0 0 0 0 0.12 0"/>
<feBlend mode="normal" in2="shape" result="effect2_innerShadow_1_786"/>
</filter>
<filter id="filter1_di_1_786" x="92.8906" y="-16.2135" width="225.469" height="225.469" filterUnits="userSpaceOnUse" color-interpolation-filters="sRGB">
<feFlood flood-opacity="0" result="BackgroundImageFix"/>
<feColorMatrix in="SourceAlpha" type="matrix" values="0 0 0 0 0 0 0 0 0 0 0 0 0 0 0 0 0 0 127 0" result="hardAlpha"/>
<feOffset dy="12.1875"/>
<feGaussianBlur stdDeviation="30.4688"/>
<feComposite in2="hardAlpha" operator="out"/>
<feColorMatrix type="matrix" values="0 0 0 0 0 0 0 0 0 0 0 0 0 0 0 0 0 0 0.1 0"/>
<feBlend mode="normal" in2="BackgroundImageFix" result="effect1_dropShadow_1_786"/>
<feBlend mode="normal" in="SourceGraphic" in2="effect1_dropShadow_1_786" result="shape"/>
<feColorMatrix in="SourceAlpha" type="matrix" values="0 0 0 0 0 0 0 0 0 0 0 0 0 0 0 0 0 0 127 0" result="hardAlpha"/>
<feOffset dy="4.875"/>
<feGaussianBlur stdDeviation="12.1875"/>
<feComposite in2="hardAlpha" operator="arithmetic" k2="-1" k3="1"/>
<feColorMatrix type="matrix" values="0 0 0 0 0 0 0 0 0 0 0 0 0 0 0 0 0 0 0.12 0"/>
<feBlend mode="normal" in2="shape" result="effect2_innerShadow_1_786"/>
</filter>
<filter id="filter2_di_1_786" x="214.766" y="-16.2135" width="225.469" height="225.469" filterUnits="userSpaceOnUse" color-interpolation-filters="sRGB">
<feFlood flood-opacity="0" result="BackgroundImageFix"/>
<feColorMatrix in="SourceAlpha" type="matrix" values="0 0 0 0 0 0 0 0 0 0 0 0 0 0 0 0 0 0 127 0" result="hardAlpha"/>
<feOffset dy="12.1875"/>
<feGaussianBlur stdDeviation="30.4688"/>
<feComposite in2="hardAlpha" operator="out"/>
<feColorMatrix type="matrix" values="0 0 0 0 0 0 0 0 0 0 0 0 0 0 0 0 0 0 0.1 0"/>
<feBlend mode="normal" in2="BackgroundImageFix" result="effect1_dropShadow_1_786"/>
<feBlend mode="normal" in="SourceGraphic" in2="effect1_dropShadow_1_786" result="shape"/>
<feColorMatrix in="SourceAlpha" type="matrix" values="0 0 0 0 0 0 0 0 0 0 0 0 0 0 0 0 0 0 127 0" result="hardAlpha"/>
<feOffset dy="4.875"/>
<feGaussianBlur stdDeviation="12.1875"/>
<feComposite in2="hardAlpha" operator="arithmetic" k2="-1" k3="1"/>
<feColorMatrix type="matrix" values="0 0 0 0 0 0 0 0 0 0 0 0 0 0 0 0 0 0 0.12 0"/>
<feBlend mode="normal" in2="shape" result="effect2_innerShadow_1_786"/>
</filter>
<filter id="filter3_di_1_786" x="336.641" y="-16.2135" width="225.469" height="225.469" filterUnits="userSpaceOnUse" color-interpolation-filters="sRGB">
<feFlood flood-opacity="0" result="BackgroundImageFix"/>
<feColorMatrix in="SourceAlpha" type="matrix" values="0 0 0 0 0 0 0 0 0 0 0 0 0 0 0 0 0 0 127 0" result="hardAlpha"/>
<feOffset dy="12.1875"/>
<feGaussianBlur stdDeviation="30.4688"/>
<feComposite in2="hardAlpha" operator="out"/>
<feColorMatrix type="matrix" values="0 0 0 0 0 0 0 0 0 0 0 0 0 0 0 0 0 0 0.1 0"/>
<feBlend mode="normal" in2="BackgroundImageFix" result="effect1_dropShadow_1_786"/>
<feBlend mode="normal" in="SourceGraphic" in2="effect1_dropShadow_1_786" result="shape"/>
<feColorMatrix in="SourceAlpha" type="matrix" values="0 0 0 0 0 0 0 0 0 0 0 0 0 0 0 0 0 0 127 0" result="hardAlpha"/>
<feOffset dy="4.875"/>
<feGaussianBlur stdDeviation="12.1875"/>
<feComposite in2="hardAlpha" operator="arithmetic" k2="-1" k3="1"/>
<feColorMatrix type="matrix" values="0 0 0 0 0 0 0 0 0 0 0 0 0 0 0 0 0 0 0.12 0"/>
<feBlend mode="normal" in2="shape" result="effect2_innerShadow_1_786"/>
</filter>
<filter id="filter4_di_1_786" x="458.516" y="-16.2135" width="225.469" height="225.469" filterUnits="userSpaceOnUse" color-interpolation-filters="sRGB">
<feFlood flood-opacity="0" result="BackgroundImageFix"/>
<feColorMatrix in="SourceAlpha" type="matrix" values="0 0 0 0 0 0 0 0 0 0 0 0 0 0 0 0 0 0 127 0" result="hardAlpha"/>
<feOffset dy="12.1875"/>
<feGaussianBlur stdDeviation="30.4688"/>
<feComposite in2="hardAlpha" operator="out"/>
<feColorMatrix type="matrix" values="0 0 0 0 0 0 0 0 0 0 0 0 0 0 0 0 0 0 0.1 0"/>
<feBlend mode="normal" in2="BackgroundImageFix" result="effect1_dropShadow_1_786"/>
<feBlend mode="normal" in="SourceGraphic" in2="effect1_dropShadow_1_786" result="shape"/>
<feColorMatrix in="SourceAlpha" type="matrix" values="0 0 0 0 0 0 0 0 0 0 0 0 0 0 0 0 0 0 127 0" result="hardAlpha"/>
<feOffset dy="4.875"/>
<feGaussianBlur stdDeviation="12.1875"/>
<feComposite in2="hardAlpha" operator="arithmetic" k2="-1" k3="1"/>
<feColorMatrix type="matrix" values="0 0 0 0 0 0 0 0 0 0 0 0 0 0 0 0 0 0 0.12 0"/>
<feBlend mode="normal" in2="shape" result="effect2_innerShadow_1_786"/>
</filter>
<filter id="filter5_di_1_786" x="92.8906" y="105.286" width="225.469" height="225.469" filterUnits="userSpaceOnUse" color-interpolation-filters="sRGB">
<feFlood flood-opacity="0" result="BackgroundImageFix"/>
<feColorMatrix in="SourceAlpha" type="matrix" values="0 0 0 0 0 0 0 0 0 0 0 0 0 0 0 0 0 0 127 0" result="hardAlpha"/>
<feOffset dy="12.1875"/>
<feGaussianBlur stdDeviation="30.4688"/>
<feComposite in2="hardAlpha" operator="out"/>
<feColorMatrix type="matrix" values="0 0 0 0 0 0 0 0 0 0 0 0 0 0 0 0 0 0 0.1 0"/>
<feBlend mode="normal" in2="BackgroundImageFix" result="effect1_dropShadow_1_786"/>
<feBlend mode="normal" in="SourceGraphic" in2="effect1_dropShadow_1_786" result="shape"/>
<feColorMatrix in="SourceAlpha" type="matrix" values="0 0 0 0 0 0 0 0 0 0 0 0 0 0 0 0 0 0 127 0" result="hardAlpha"/>
<feOffset dy="4.875"/>
<feGaussianBlur stdDeviation="12.1875"/>
<feComposite in2="hardAlpha" operator="arithmetic" k2="-1" k3="1"/>
<feColorMatrix type="matrix" values="0 0 0 0 0 0 0 0 0 0 0 0 0 0 0 0 0 0 0.12 0"/>
<feBlend mode="normal" in2="shape" result="effect2_innerShadow_1_786"/>
</filter>
<filter id="filter6_di_1_786" x="214.766" y="105.286" width="225.469" height="225.469" filterUnits="userSpaceOnUse" color-interpolation-filters="sRGB">
<feFlood flood-opacity="0" result="BackgroundImageFix"/>
<feColorMatrix in="SourceAlpha" type="matrix" values="0 0 0 0 0 0 0 0 0 0 0 0 0 0 0 0 0 0 127 0" result="hardAlpha"/>
<feOffset dy="12.1875"/>
<feGaussianBlur stdDeviation="30.4688"/>
<feComposite in2="hardAlpha" operator="out"/>
<feColorMatrix type="matrix" values="0 0 0 0 0 0 0 0 0 0 0 0 0 0 0 0 0 0 0.1 0"/>
<feBlend mode="normal" in2="BackgroundImageFix" result="effect1_dropShadow_1_786"/>
<feBlend mode="normal" in="SourceGraphic" in2="effect1_dropShadow_1_786" result="shape"/>
<feColorMatrix in="SourceAlpha" type="matrix" values="0 0 0 0 0 0 0 0 0 0 0 0 0 0 0 0 0 0 127 0" result="hardAlpha"/>
<feOffset dy="4.875"/>
<feGaussianBlur stdDeviation="12.1875"/>
<feComposite in2="hardAlpha" operator="arithmetic" k2="-1" k3="1"/>
<feColorMatrix type="matrix" values="0 0 0 0 0 0 0 0 0 0 0 0 0 0 0 0 0 0 0.12 0"/>
<feBlend mode="normal" in2="shape" result="effect2_innerShadow_1_786"/>
</filter>
<filter id="filter7_di_1_786" x="336.641" y="105.286" width="225.469" height="225.469" filterUnits="userSpaceOnUse" color-interpolation-filters="sRGB">
<feFlood flood-opacity="0" result="BackgroundImageFix"/>
<feColorMatrix in="SourceAlpha" type="matrix" values="0 0 0 0 0 0 0 0 0 0 0 0 0 0 0 0 0 0 127 0" result="hardAlpha"/>
<feOffset dy="12.1875"/>
<feGaussianBlur stdDeviation="30.4688"/>
<feComposite in2="hardAlpha" operator="out"/>
<feColorMatrix type="matrix" values="0 0 0 0 0 0 0 0 0 0 0 0 0 0 0 0 0 0 0.1 0"/>
<feBlend mode="normal" in2="BackgroundImageFix" result="effect1_dropShadow_1_786"/>
<feBlend mode="normal" in="SourceGraphic" in2="effect1_dropShadow_1_786" result="shape"/>
<feColorMatrix in="SourceAlpha" type="matrix" values="0 0 0 0 0 0 0 0 0 0 0 0 0 0 0 0 0 0 127 0" result="hardAlpha"/>
<feOffset dy="4.875"/>
<feGaussianBlur stdDeviation="12.1875"/>
<feComposite in2="hardAlpha" operator="arithmetic" k2="-1" k3="1"/>
<feColorMatrix type="matrix" values="0 0 0 0 0 0 0 0 0 0 0 0 0 0 0 0 0 0 0.12 0"/>
<feBlend mode="normal" in2="shape" result="effect2_innerShadow_1_786"/>
</filter>
<filter id="filter8_di_1_786" x="-28.9844" y="226.786" width="225.469" height="225.469" filterUnits="userSpaceOnUse" color-interpolation-filters="sRGB">
<feFlood flood-opacity="0" result="BackgroundImageFix"/>
<feColorMatrix in="SourceAlpha" type="matrix" values="0 0 0 0 0 0 0 0 0 0 0 0 0 0 0 0 0 0 127 0" result="hardAlpha"/>
<feOffset dy="12.1875"/>
<feGaussianBlur stdDeviation="30.4688"/>
<feComposite in2="hardAlpha" operator="out"/>
<feColorMatrix type="matrix" values="0 0 0 0 0 0 0 0 0 0 0 0 0 0 0 0 0 0 0.1 0"/>
<feBlend mode="normal" in2="BackgroundImageFix" result="effect1_dropShadow_1_786"/>
<feBlend mode="normal" in="SourceGraphic" in2="effect1_dropShadow_1_786" result="shape"/>
<feColorMatrix in="SourceAlpha" type="matrix" values="0 0 0 0 0 0 0 0 0 0 0 0 0 0 0 0 0 0 127 0" result="hardAlpha"/>
<feOffset dy="4.875"/>
<feGaussianBlur stdDeviation="12.1875"/>
<feComposite in2="hardAlpha" operator="arithmetic" k2="-1" k3="1"/>
<feColorMatrix type="matrix" values="0 0 0 0 0 0 0 0 0 0 0 0 0 0 0 0 0 0 0.12 0"/>
<feBlend mode="normal" in2="shape" result="effect2_innerShadow_1_786"/>
</filter>
<filter id="filter9_di_1_786" x="92.8906" y="226.786" width="225.469" height="225.469" filterUnits="userSpaceOnUse" color-interpolation-filters="sRGB">
<feFlood flood-opacity="0" result="BackgroundImageFix"/>
<feColorMatrix in="SourceAlpha" type="matrix" values="0 0 0 0 0 0 0 0 0 0 0 0 0 0 0 0 0 0 127 0" result="hardAlpha"/>
<feOffset dy="12.1875"/>
<feGaussianBlur stdDeviation="30.4688"/>
<feComposite in2="hardAlpha" operator="out"/>
<feColorMatrix type="matrix" values="0 0 0 0 0 0 0 0 0 0 0 0 0 0 0 0 0 0 0.1 0"/>
<feBlend mode="normal" in2="BackgroundImageFix" result="effect1_dropShadow_1_786"/>
<feBlend mode="normal" in="SourceGraphic" in2="effect1_dropShadow_1_786" result="shape"/>
<feColorMatrix in="SourceAlpha" type="matrix" values="0 0 0 0 0 0 0 0 0 0 0 0 0 0 0 0 0 0 127 0" result="hardAlpha"/>
<feOffset dy="4.875"/>
<feGaussianBlur stdDeviation="12.1875"/>
<feComposite in2="hardAlpha" operator="arithmetic" k2="-1" k3="1"/>
<feColorMatrix type="matrix" values="0 0 0 0 0 0 0 0 0 0 0 0 0 0 0 0 0 0 0.12 0"/>
<feBlend mode="normal" in2="shape" result="effect2_innerShadow_1_786"/>
</filter>
<filter id="filter10_di_1_786" x="214.766" y="226.786" width="225.469" height="225.469" filterUnits="userSpaceOnUse" color-interpolation-filters="sRGB">
<feFlood flood-opacity="0" result="BackgroundImageFix"/>
<feColorMatrix in="SourceAlpha" type="matrix" values="0 0 0 0 0 0 0 0 0 0 0 0 0 0 0 0 0 0 127 0" result="hardAlpha"/>
<feOffset dy="12.1875"/>
<feGaussianBlur stdDeviation="30.4688"/>
<feComposite in2="hardAlpha" operator="out"/>
<feColorMatrix type="matrix" values="0 0 0 0 0 0 0 0 0 0 0 0 0 0 0 0 0 0 0.1 0"/>
<feBlend mode="normal" in2="BackgroundImageFix" result="effect1_dropShadow_1_786"/>
<feBlend mode="normal" in="SourceGraphic" in2="effect1_dropShadow_1_786" result="shape"/>
<feColorMatrix in="SourceAlpha" type="matrix" values="0 0 0 0 0 0 0 0 0 0 0 0 0 0 0 0 0 0 127 0" result="hardAlpha"/>
<feOffset dy="4.875"/>
<feGaussianBlur stdDeviation="12.1875"/>
<feComposite in2="hardAlpha" operator="arithmetic" k2="-1" k3="1"/>
<feColorMatrix type="matrix" values="0 0 0 0 0 0 0 0 0 0 0 0 0 0 0 0 0 0 0.12 0"/>
<feBlend mode="normal" in2="shape" result="effect2_innerShadow_1_786"/>
</filter>
<filter id="filter11_di_1_786" x="336.641" y="226.786" width="225.469" height="225.469" filterUnits="userSpaceOnUse" color-interpolation-filters="sRGB">
<feFlood flood-opacity="0" result="BackgroundImageFix"/>
<feColorMatrix in="SourceAlpha" type="matrix" values="0 0 0 0 0 0 0 0 0 0 0 0 0 0 0 0 0 0 127 0" result="hardAlpha"/>
<feOffset dy="12.1875"/>
<feGaussianBlur stdDeviation="30.4688"/>
<feComposite in2="hardAlpha" operator="out"/>
<feColorMatrix type="matrix" values="0 0 0 0 0 0 0 0 0 0 0 0 0 0 0 0 0 0 0.1 0"/>
<feBlend mode="normal" in2="BackgroundImageFix" result="effect1_dropShadow_1_786"/>
<feBlend mode="normal" in="SourceGraphic" in2="effect1_dropShadow_1_786" result="shape"/>
<feColorMatrix in="SourceAlpha" type="matrix" values="0 0 0 0 0 0 0 0 0 0 0 0 0 0 0 0 0 0 127 0" result="hardAlpha"/>
<feOffset dy="4.875"/>
<feGaussianBlur stdDeviation="12.1875"/>
<feComposite in2="hardAlpha" operator="arithmetic" k2="-1" k3="1"/>
<feColorMatrix type="matrix" values="0 0 0 0 0 0 0 0 0 0 0 0 0 0 0 0 0 0 0.12 0"/>
<feBlend mode="normal" in2="shape" result="effect2_innerShadow_1_786"/>
</filter>
<filter id="filter12_di_1_786" x="458.516" y="226.786" width="225.469" height="225.469" filterUnits="userSpaceOnUse" color-interpolation-filters="sRGB">
<feFlood flood-opacity="0" result="BackgroundImageFix"/>
<feColorMatrix in="SourceAlpha" type="matrix" values="0 0 0 0 0 0 0 0 0 0 0 0 0 0 0 0 0 0 127 0" result="hardAlpha"/>
<feOffset dy="12.1875"/>
<feGaussianBlur stdDeviation="30.4688"/>
<feComposite in2="hardAlpha" operator="out"/>
<feColorMatrix type="matrix" values="0 0 0 0 0 0 0 0 0 0 0 0 0 0 0 0 0 0 0.1 0"/>
<feBlend mode="normal" in2="BackgroundImageFix" result="effect1_dropShadow_1_786"/>
<feBlend mode="normal" in="SourceGraphic" in2="effect1_dropShadow_1_786" result="shape"/>
<feColorMatrix in="SourceAlpha" type="matrix" values="0 0 0 0 0 0 0 0 0 0 0 0 0 0 0 0 0 0 127 0" result="hardAlpha"/>
<feOffset dy="4.875"/>
<feGaussianBlur stdDeviation="12.1875"/>
<feComposite in2="hardAlpha" operator="arithmetic" k2="-1" k3="1"/>
<feColorMatrix type="matrix" values="0 0 0 0 0 0 0 0 0 0 0 0 0 0 0 0 0 0 0.12 0"/>
<feBlend mode="normal" in2="shape" result="effect2_innerShadow_1_786"/>
</filter>
<filter id="filter13_di_1_786" x="92.8906" y="348.286" width="225.469" height="225.469" filterUnits="userSpaceOnUse" color-interpolation-filters="sRGB">
<feFlood flood-opacity="0" result="BackgroundImageFix"/>
<feColorMatrix in="SourceAlpha" type="matrix" values="0 0 0 0 0 0 0 0 0 0 0 0 0 0 0 0 0 0 127 0" result="hardAlpha"/>
<feOffset dy="12.1875"/>
<feGaussianBlur stdDeviation="30.4688"/>
<feComposite in2="hardAlpha" operator="out"/>
<feColorMatrix type="matrix" values="0 0 0 0 0 0 0 0 0 0 0 0 0 0 0 0 0 0 0.1 0"/>
<feBlend mode="normal" in2="BackgroundImageFix" result="effect1_dropShadow_1_786"/>
<feBlend mode="normal" in="SourceGraphic" in2="effect1_dropShadow_1_786" result="shape"/>
<feColorMatrix in="SourceAlpha" type="matrix" values="0 0 0 0 0 0 0 0 0 0 0 0 0 0 0 0 0 0 127 0" result="hardAlpha"/>
<feOffset dy="4.875"/>
<feGaussianBlur stdDeviation="12.1875"/>
<feComposite in2="hardAlpha" operator="arithmetic" k2="-1" k3="1"/>
<feColorMatrix type="matrix" values="0 0 0 0 0 0 0 0 0 0 0 0 0 0 0 0 0 0 0.12 0"/>
<feBlend mode="normal" in2="shape" result="effect2_innerShadow_1_786"/>
</filter>
<filter id="filter14_di_1_786" x="214.766" y="348.286" width="225.469" height="225.469" filterUnits="userSpaceOnUse" color-interpolation-filters="sRGB">
<feFlood flood-opacity="0" result="BackgroundImageFix"/>
<feColorMatrix in="SourceAlpha" type="matrix" values="0 0 0 0 0 0 0 0 0 0 0 0 0 0 0 0 0 0 127 0" result="hardAlpha"/>
<feOffset dy="12.1875"/>
<feGaussianBlur stdDeviation="30.4688"/>
<feComposite in2="hardAlpha" operator="out"/>
<feColorMatrix type="matrix" values="0 0 0 0 0 0 0 0 0 0 0 0 0 0 0 0 0 0 0.1 0"/>
<feBlend mode="normal" in2="BackgroundImageFix" result="effect1_dropShadow_1_786"/>
<feBlend mode="normal" in="SourceGraphic" in2="effect1_dropShadow_1_786" result="shape"/>
<feColorMatrix in="SourceAlpha" type="matrix" values="0 0 0 0 0 0 0 0 0 0 0 0 0 0 0 0 0 0 127 0" result="hardAlpha"/>
<feOffset dy="4.875"/>
<feGaussianBlur stdDeviation="12.1875"/>
<feComposite in2="hardAlpha" operator="arithmetic" k2="-1" k3="1"/>
<feColorMatrix type="matrix" values="0 0 0 0 0 0 0 0 0 0 0 0 0 0 0 0 0 0 0.12 0"/>
<feBlend mode="normal" in2="shape" result="effect2_innerShadow_1_786"/>
</filter>
<filter id="filter15_di_1_786" x="336.641" y="348.286" width="225.469" height="225.469" filterUnits="userSpaceOnUse" color-interpolation-filters="sRGB">
<feFlood flood-opacity="0" result="BackgroundImageFix"/>
<feColorMatrix in="SourceAlpha" type="matrix" values="0 0 0 0 0 0 0 0 0 0 0 0 0 0 0 0 0 0 127 0" result="hardAlpha"/>
<feOffset dy="12.1875"/>
<feGaussianBlur stdDeviation="30.4688"/>
<feComposite in2="hardAlpha" operator="out"/>
<feColorMatrix type="matrix" values="0 0 0 0 0 0 0 0 0 0 0 0 0 0 0 0 0 0 0.1 0"/>
<feBlend mode="normal" in2="BackgroundImageFix" result="effect1_dropShadow_1_786"/>
<feBlend mode="normal" in="SourceGraphic" in2="effect1_dropShadow_1_786" result="shape"/>
<feColorMatrix in="SourceAlpha" type="matrix" values="0 0 0 0 0 0 0 0 0 0 0 0 0 0 0 0 0 0 127 0" result="hardAlpha"/>
<feOffset dy="4.875"/>
<feGaussianBlur stdDeviation="12.1875"/>
<feComposite in2="hardAlpha" operator="arithmetic" k2="-1" k3="1"/>
<feColorMatrix type="matrix" values="0 0 0 0 0 0 0 0 0 0 0 0 0 0 0 0 0 0 0.12 0"/>
<feBlend mode="normal" in2="shape" result="effect2_innerShadow_1_786"/>
</filter>
<filter id="filter16_di_1_786" x="-28.9844" y="469.786" width="225.469" height="225.469" filterUnits="userSpaceOnUse" color-interpolation-filters="sRGB">
<feFlood flood-opacity="0" result="BackgroundImageFix"/>
<feColorMatrix in="SourceAlpha" type="matrix" values="0 0 0 0 0 0 0 0 0 0 0 0 0 0 0 0 0 0 127 0" result="hardAlpha"/>
<feOffset dy="12.1875"/>
<feGaussianBlur stdDeviation="30.4688"/>
<feComposite in2="hardAlpha" operator="out"/>
<feColorMatrix type="matrix" values="0 0 0 0 0 0 0 0 0 0 0 0 0 0 0 0 0 0 0.1 0"/>
<feBlend mode="normal" in2="BackgroundImageFix" result="effect1_dropShadow_1_786"/>
<feBlend mode="normal" in="SourceGraphic" in2="effect1_dropShadow_1_786" result="shape"/>
<feColorMatrix in="SourceAlpha" type="matrix" values="0 0 0 0 0 0 0 0 0 0 0 0 0 0 0 0 0 0 127 0" result="hardAlpha"/>
<feOffset dy="4.875"/>
<feGaussianBlur stdDeviation="12.1875"/>
<feComposite in2="hardAlpha" operator="arithmetic" k2="-1" k3="1"/>
<feColorMatrix type="matrix" values="0 0 0 0 0 0 0 0 0 0 0 0 0 0 0 0 0 0 0.12 0"/>
<feBlend mode="normal" in2="shape" result="effect2_innerShadow_1_786"/>
</filter>
<filter id="filter17_di_1_786" x="92.8906" y="469.786" width="225.469" height="225.469" filterUnits="userSpaceOnUse" color-interpolation-filters="sRGB">
<feFlood flood-opacity="0" result="BackgroundImageFix"/>
<feColorMatrix in="SourceAlpha" type="matrix" values="0 0 0 0 0 0 0 0 0 0 0 0 0 0 0 0 0 0 127 0" result="hardAlpha"/>
<feOffset dy="12.1875"/>
<feGaussianBlur stdDeviation="30.4688"/>
<feComposite in2="hardAlpha" operator="out"/>
<feColorMatrix type="matrix" values="0 0 0 0 0 0 0 0 0 0 0 0 0 0 0 0 0 0 0.1 0"/>
<feBlend mode="normal" in2="BackgroundImageFix" result="effect1_dropShadow_1_786"/>
<feBlend mode="normal" in="SourceGraphic" in2="effect1_dropShadow_1_786" result="shape"/>
<feColorMatrix in="SourceAlpha" type="matrix" values="0 0 0 0 0 0 0 0 0 0 0 0 0 0 0 0 0 0 127 0" result="hardAlpha"/>
<feOffset dy="4.875"/>
<feGaussianBlur stdDeviation="12.1875"/>
<feComposite in2="hardAlpha" operator="arithmetic" k2="-1" k3="1"/>
<feColorMatrix type="matrix" values="0 0 0 0 0 0 0 0 0 0 0 0 0 0 0 0 0 0 0.12 0"/>
<feBlend mode="normal" in2="shape" result="effect2_innerShadow_1_786"/>
</filter>
<filter id="filter18_di_1_786" x="214.766" y="469.786" width="225.469" height="225.469" filterUnits="userSpaceOnUse" color-interpolation-filters="sRGB">
<feFlood flood-opacity="0" result="BackgroundImageFix"/>
<feColorMatrix in="SourceAlpha" type="matrix" values="0 0 0 0 0 0 0 0 0 0 0 0 0 0 0 0 0 0 127 0" result="hardAlpha"/>
<feOffset dy="12.1875"/>
<feGaussianBlur stdDeviation="30.4688"/>
<feComposite in2="hardAlpha" operator="out"/>
<feColorMatrix type="matrix" values="0 0 0 0 0 0 0 0 0 0 0 0 0 0 0 0 0 0 0.1 0"/>
<feBlend mode="normal" in2="BackgroundImageFix" result="effect1_dropShadow_1_786"/>
<feBlend mode="normal" in="SourceGraphic" in2="effect1_dropShadow_1_786" result="shape"/>
<feColorMatrix in="SourceAlpha" type="matrix" values="0 0 0 0 0 0 0 0 0 0 0 0 0 0 0 0 0 0 127 0" result="hardAlpha"/>
<feOffset dy="4.875"/>
<feGaussianBlur stdDeviation="12.1875"/>
<feComposite in2="hardAlpha" operator="arithmetic" k2="-1" k3="1"/>
<feColorMatrix type="matrix" values="0 0 0 0 0 0 0 0 0 0 0 0 0 0 0 0 0 0 0.12 0"/>
<feBlend mode="normal" in2="shape" result="effect2_innerShadow_1_786"/>
</filter>
<filter id="filter19_di_1_786" x="336.641" y="469.786" width="225.469" height="225.469" filterUnits="userSpaceOnUse" color-interpolation-filters="sRGB">
<feFlood flood-opacity="0" result="BackgroundImageFix"/>
<feColorMatrix in="SourceAlpha" type="matrix" values="0 0 0 0 0 0 0 0 0 0 0 0 0 0 0 0 0 0 127 0" result="hardAlpha"/>
<feOffset dy="12.1875"/>
<feGaussianBlur stdDeviation="30.4688"/>
<feComposite in2="hardAlpha" operator="out"/>
<feColorMatrix type="matrix" values="0 0 0 0 0 0 0 0 0 0 0 0 0 0 0 0 0 0 0.1 0"/>
<feBlend mode="normal" in2="BackgroundImageFix" result="effect1_dropShadow_1_786"/>
<feBlend mode="normal" in="SourceGraphic" in2="effect1_dropShadow_1_786" result="shape"/>
<feColorMatrix in="SourceAlpha" type="matrix" values="0 0 0 0 0 0 0 0 0 0 0 0 0 0 0 0 0 0 127 0" result="hardAlpha"/>
<feOffset dy="4.875"/>
<feGaussianBlur stdDeviation="12.1875"/>
<feComposite in2="hardAlpha" operator="arithmetic" k2="-1" k3="1"/>
<feColorMatrix type="matrix" values="0 0 0 0 0 0 0 0 0 0 0 0 0 0 0 0 0 0 0.12 0"/>
<feBlend mode="normal" in2="shape" result="effect2_innerShadow_1_786"/>
</filter>
<filter id="filter20_di_1_786" x="458.516" y="469.786" width="225.469" height="225.469" filterUnits="userSpaceOnUse" color-interpolation-filters="sRGB">
<feFlood flood-opacity="0" result="BackgroundImageFix"/>
<feColorMatrix in="SourceAlpha" type="matrix" values="0 0 0 0 0 0 0 0 0 0 0 0 0 0 0 0 0 0 127 0" result="hardAlpha"/>
<feOffset dy="12.1875"/>
<feGaussianBlur stdDeviation="30.4688"/>
<feComposite in2="hardAlpha" operator="out"/>
<feColorMatrix type="matrix" values="0 0 0 0 0 0 0 0 0 0 0 0 0 0 0 0 0 0 0.1 0"/>
<feBlend mode="normal" in2="BackgroundImageFix" result="effect1_dropShadow_1_786"/>
<feBlend mode="normal" in="SourceGraphic" in2="effect1_dropShadow_1_786" result="shape"/>
<feColorMatrix in="SourceAlpha" type="matrix" values="0 0 0 0 0 0 0 0 0 0 0 0 0 0 0 0 0 0 127 0" result="hardAlpha"/>
<feOffset dy="4.875"/>
<feGaussianBlur stdDeviation="12.1875"/>
<feComposite in2="hardAlpha" operator="arithmetic" k2="-1" k3="1"/>
<feColorMatrix type="matrix" values="0 0 0 0 0 0 0 0 0 0 0 0 0 0 0 0 0 0 0.12 0"/>
<feBlend mode="normal" in2="shape" result="effect2_innerShadow_1_786"/>
</filter>
<clipPath id="clip0_1_786">
<path d="M0 30.5833C0 14.0148 13.4315 0.583344 30 0.583344H655V654.083H30C13.4315 654.083 0 640.652 0 624.083V30.5833Z" fill="white"/>
</clipPath>
<clipPath id="clip1_1_786">
<rect width="40" height="40" fill="white" transform="translate(428.021 427.605)"/>
</clipPath>
</defs>
</svg>
