<svg width="59" height="59" viewBox="0 0 59 59" fill="none" xmlns="http://www.w3.org/2000/svg">
<rect x="1.30672" y="1.47408" width="56.3866" height="56.3866" rx="9.93697" fill="#EAEAEA"/>
<g clip-path="url(#clip0_1_931)">
<path d="M19.4896 19.8618H39.534V40.1448H19.4896V19.8618Z" fill="#261300"/>
<path d="M18.5784 18.9141V41.0926H40.4451V18.9141H18.5784ZM19.4895 19.8619H39.534V40.1448H19.4895V19.8619Z" fill="#FF7C00"/>
<path d="M26.168 31.4724L25.4482 34.3158C25.43 34.3916 25.4027 34.4106 25.3116 34.4106H23.9722C23.8811 34.4106 23.8629 34.3822 23.8811 34.2684L26.4687 24.8473C26.5142 24.6767 26.5415 24.525 26.5598 24.0606C26.5598 23.9943 26.5871 23.9658 26.6327 23.9658H28.546C28.6098 23.9658 28.6371 23.9848 28.6553 24.0606L31.5527 34.2874C31.5709 34.3632 31.5527 34.4106 31.4798 34.4106H29.9673C29.8944 34.4106 29.8489 34.3916 29.8307 34.3253L29.0744 31.4724H26.168ZM28.7009 29.937C28.4458 28.8849 27.8444 26.5912 27.6167 25.4823H27.5984C27.4071 26.5912 26.9242 28.4679 26.5415 29.937H28.7009ZM32.8009 24.6672C32.8009 24.0606 33.2109 23.7004 33.7302 23.7004C34.286 23.7004 34.6596 24.089 34.6596 24.6672C34.6596 25.2927 34.2678 25.634 33.712 25.634C33.1835 25.634 32.8009 25.2927 32.8009 24.6672ZM32.9102 26.8187C32.9102 26.7429 32.9376 26.705 33.0196 26.705H34.45C34.5229 26.705 34.5593 26.7334 34.5593 26.8187V34.2969C34.5593 34.3727 34.5411 34.4106 34.45 34.4106H33.0378C32.9467 34.4106 32.9193 34.3632 32.9193 34.2874V26.8187H32.9102Z" fill="#FF7C00"/>
</g>
<rect x="1.30672" y="1.47408" width="56.3866" height="56.3866" rx="9.93697" stroke="#F5F5F5" stroke-width="1.38655"/>
<defs>
<clipPath id="clip0_1_931">
<rect width="22" height="23" fill="white" transform="translate(18.5 18.1674)"/>
</clipPath>
</defs>
</svg>
