<svg width="24" height="24" viewBox="0 0 24 24" fill="none" xmlns="http://www.w3.org/2000/svg">
<path d="M17 1.99951H7C4.23858 1.99951 2 4.23809 2 6.99951V16.9995C2 19.7609 4.23858 21.9995 7 21.9995H17C19.7614 21.9995 22 19.7609 22 16.9995V6.99951C22 4.23809 19.7614 1.99951 17 1.99951Z" stroke="white" stroke-width="2" stroke-linecap="round" stroke-linejoin="round"/>
<path d="M16 11.3693C16.1234 12.2016 15.9812 13.0515 15.5937 13.7983C15.2062 14.5451 14.5931 15.1507 13.8416 15.529C13.0901 15.9073 12.2384 16.0389 11.4077 15.9053C10.5771 15.7716 9.80971 15.3794 9.21479 14.7845C8.61987 14.1896 8.22768 13.4222 8.09402 12.5915C7.96035 11.7609 8.09202 10.9092 8.47028 10.1577C8.84854 9.40618 9.45414 8.79307 10.2009 8.40557C10.9477 8.01807 11.7977 7.87591 12.63 7.99932C13.4789 8.12521 14.2648 8.52079 14.8716 9.12763C15.4785 9.73447 15.8741 10.5204 16 11.3693Z" stroke="white" stroke-width="2" stroke-linecap="round" stroke-linejoin="round"/>
<path d="M17.5 6.49951H17.51" stroke="white" stroke-width="2" stroke-linecap="round" stroke-linejoin="round"/>
</svg>
