<svg width="67" height="23" viewBox="0 0 67 23" fill="none" xmlns="http://www.w3.org/2000/svg">
<path d="M22.3303 22.5832H18.8888V3.95288H13.6955C10.9831 3.95288 8.7759 6.35059 8.7759 9.29803V22.5832H5.33438V9.29803C5.33438 4.50817 9.08506 0.611115 13.6955 0.611115H22.3303V22.5832Z" fill="white"/>
<path d="M22.3303 14.2707H1.03246C0.46231 14.2707 0 13.8218 0 13.2682V11.9315C0 11.3779 0.46231 10.929 1.03246 10.929H22.3303V14.2707Z" fill="white"/>
<path d="M54.5879 14.2846H43.4029V0.583374H54.5879C57.7822 0.583374 60.3811 3.10696 60.3811 6.20868V8.6593C60.3811 11.761 57.7822 14.2846 54.5879 14.2846ZM46.8444 10.9428H54.5879C55.8847 10.9428 56.9396 9.91859 56.9396 8.6593V6.20868C56.9396 4.94939 55.8847 3.92514 54.5879 3.92514H46.8444V10.9428Z" fill="white"/>
<path d="M56.1365 22.5829H47.289C45.1461 22.5829 43.4029 20.8903 43.4029 18.8095V10.9424H56.1365C58.4768 10.9424 60.3811 12.7915 60.3811 15.0639V18.4614C60.3811 20.7338 58.4768 22.5829 56.1365 22.5829ZM46.8444 14.2842V18.8095C46.8444 19.0479 47.044 19.2411 47.289 19.2411H56.1365C56.5793 19.2411 56.9396 18.8914 56.9396 18.4614V15.0639C56.9396 14.6339 56.5793 14.2842 56.1365 14.2842H46.8444Z" fill="white"/>
<path d="M35.5625 14.2846H24.3776V0.583374H35.5625C38.7568 0.583374 41.3557 3.10696 41.3557 6.20868V8.6593C41.3557 11.761 38.7568 14.2846 35.5625 14.2846ZM27.8191 10.9428H35.5625C36.8594 10.9428 37.9142 9.91859 37.9142 8.6593V6.20868C37.9142 4.94939 36.8594 3.92514 35.5625 3.92514H27.8191V10.9428Z" fill="white"/>
<path d="M37.1112 22.5829H28.0881C26.0421 22.5829 24.3776 20.9666 24.3776 18.9799V10.9424H37.1112C39.4514 10.9424 41.3557 12.7915 41.3557 15.0639V18.4614C41.3557 20.7338 39.4514 22.5829 37.1112 22.5829ZM27.8191 14.2842V18.9799C27.8191 19.1242 27.9396 19.2411 28.0881 19.2411H37.1112C37.554 19.2411 37.9142 18.8914 37.9142 18.4614V15.0639C37.9142 14.6339 37.554 14.2842 37.1112 14.2842H27.8191Z" fill="white"/>
<path d="M64.9874 18.6848H63.0372C62.467 18.6848 62.0048 19.1337 62.0048 19.6874V21.581C62.0048 22.1347 62.467 22.5836 63.0372 22.5836H64.9874C65.5576 22.5836 66.0199 22.1347 66.0199 21.581V19.6874C66.0199 19.1337 65.5576 18.6848 64.9874 18.6848Z" fill="white"/>
</svg>
