<svg width="59" height="59" viewBox="0 0 59 59" fill="none" xmlns="http://www.w3.org/2000/svg">
<rect x="1.30672" y="1.47408" width="56.3866" height="56.3866" rx="9.93697" fill="#EAEAEA"/>
<g clip-path="url(#clip0_1_913)">
<path d="M29.5117 18.2421L22.6244 18.9934L17.2921 26.3784L29.5117 41.0594L41.7313 26.3784L36.3992 18.9934L29.5117 18.2421Z" fill="#FDB300"/>
<path d="M17.2921 26.3784L29.5117 41.0594L22.2416 26.3784H17.2921Z" fill="#EB6C00"/>
<path d="M36.7818 26.3784L29.5118 41.0594L41.7313 26.3784H36.7818Z" fill="#EB6C00"/>
<path d="M22.2416 26.3784L29.5117 41.0594L36.7818 26.3784H22.2416Z" fill="#FDAD00"/>
<path d="M22.6244 18.9934L22.2416 26.3784L29.5117 18.2421L22.6244 18.9934Z" fill="#FDD231"/>
<path d="M36.7818 26.3784L36.3992 18.9933L29.5118 18.2421L36.7818 26.3784Z" fill="#FDD231"/>
<path d="M36.7818 26.3784H41.7312L36.3991 18.9933L36.7818 26.3784Z" fill="#FDAD00"/>
<path d="M17.2921 26.3784H22.2416L22.6244 18.9933L17.2921 26.3784Z" fill="#FDAD00"/>
<path d="M29.5117 18.2421L22.2416 26.3784H36.7818L29.5117 18.2421Z" fill="#FEEEB7"/>
</g>
<rect x="1.30672" y="1.47408" width="56.3866" height="56.3866" rx="9.93697" stroke="#F5F5F5" stroke-width="1.38655"/>
<defs>
<clipPath id="clip0_1_913">
<rect width="26" height="23" fill="white" transform="translate(16.5 18.1674)"/>
</clipPath>
</defs>
</svg>
