<svg width="59" height="59" viewBox="0 0 59 59" fill="none" xmlns="http://www.w3.org/2000/svg">
<rect x="1.30672" y="1.47408" width="56.3866" height="56.3866" rx="9.93697" fill="#EAEAEA"/>
<g clip-path="url(#clip0_1_942)">
<path d="M18.2962 36.1671C17.0696 36.1671 16.0505 35.8903 15.239 35.3367C14.4379 34.8022 13.8271 34.0086 13.5 33.0775L15.8633 31.6488C16.3433 32.8031 17.1826 33.3803 18.3814 33.3803C19.4642 33.3803 20.0062 33.0413 20.0074 32.3632C20.0073 32.1822 19.9584 32.0049 19.8661 31.8516C19.7738 31.6983 19.642 31.5752 19.4857 31.4965C19.1379 31.288 18.484 31.0487 17.5241 30.7712C17.0728 30.6482 16.6319 30.4869 16.2059 30.289C15.8124 30.1009 15.4417 29.8647 15.1016 29.5855C14.7445 29.3003 14.4617 28.9262 14.2791 28.4976C14.0831 28.0164 13.9871 27.4973 13.9974 26.9746C13.9974 25.819 14.3939 24.8962 15.1868 24.206C15.9807 23.5147 16.9873 23.1458 18.0214 23.1671C18.9391 23.1476 19.8434 23.3991 20.6299 23.8923C21.4021 24.3993 22.0183 25.1268 22.4055 25.9883L20.0943 27.3989C19.9163 26.9724 19.6396 26.5987 19.2892 26.311C18.9145 26.0522 18.4703 25.9251 18.0214 25.9484C17.6834 25.9259 17.348 26.0237 17.0702 26.2258C16.9678 26.3019 16.8842 26.4022 16.8262 26.5185C16.7682 26.6348 16.7374 26.7637 16.7363 26.8948C16.7391 27.0538 16.7783 27.2098 16.8506 27.3498C16.9229 27.4898 17.0262 27.6098 17.1519 27.6998C17.4302 27.9247 18.011 28.1749 18.8909 28.4487C19.3709 28.6046 19.7413 28.7279 20.0039 28.824C20.3481 28.9583 20.6833 29.1164 21.0073 29.2972C21.3516 29.4715 21.6641 29.7071 21.9307 29.9934C22.1698 30.2822 22.3619 30.6099 22.4994 30.9634C22.6712 31.3959 22.7558 31.8607 22.748 32.3287C22.748 33.5193 22.3371 34.4567 21.5151 35.1408C20.6931 35.825 19.6201 36.1671 18.2962 36.1671Z" fill="#131315"/>
<path d="M26.6539 35.9172L22.748 23.4176H25.7461L28.3998 32.6137L31.064 23.4176H34.0603L30.1475 35.9172H26.6539Z" fill="#131315"/>
<path d="M46.4334 28.953V30.0246C46.4334 31.8945 45.8769 33.3855 44.7639 34.4975C43.6509 35.6096 42.2383 36.1662 40.5259 36.1674C38.6629 36.1674 37.1186 35.5425 35.8932 34.2926C35.2975 33.701 34.8262 32.9868 34.5092 32.1953C34.1922 31.4038 34.0364 30.5522 34.0516 29.6946C34.0351 28.8344 34.1886 27.9799 34.5024 27.1842C34.8162 26.3885 35.2837 25.6686 35.8758 25.0693C36.456 24.4524 37.1509 23.9655 37.9179 23.6385C38.6849 23.3114 39.5079 23.1511 40.3364 23.1674C41.4082 23.1557 42.4656 23.4257 43.411 23.9525C44.2954 24.4326 45.0428 25.1474 45.5778 26.0248L43.2475 27.4173C42.9556 26.9619 42.5505 26.5977 42.0754 26.3639C41.5295 26.0835 40.9275 25.9424 40.319 25.9523C39.8513 25.9379 39.3858 26.024 38.9514 26.2052C38.517 26.3865 38.123 26.6589 37.794 27.0057C37.1262 27.7104 36.7923 28.6067 36.7923 29.6946C36.7923 30.7824 37.1349 31.6666 37.82 32.3472C38.5052 33.0325 39.4182 33.3746 40.559 33.3734C42.1461 33.3734 43.1681 32.7309 43.6249 31.446H40.4216V28.953H46.4334Z" fill="#131315"/>
</g>
<rect x="1.30672" y="1.47408" width="56.3866" height="56.3866" rx="9.93697" stroke="#F5F5F5" stroke-width="1.38655"/>
<defs>
<clipPath id="clip0_1_942">
<rect width="32.9333" height="13" fill="white" transform="translate(13.5 23.1674)"/>
</clipPath>
</defs>
</svg>
