<svg width="59" height="59" viewBox="0 0 59 59" fill="none" xmlns="http://www.w3.org/2000/svg">
<rect x="1.30672" y="1.47408" width="56.3866" height="56.3866" rx="9.93697" fill="#EAEAEA"/>
<g clip-path="url(#clip0_1_901)">
<path d="M37.3461 41.0926H22.6785C20.4547 41.0926 18.6567 39.2918 18.6567 37.0645V22.9422C18.6567 20.7149 20.4547 18.9141 22.6785 18.9141H37.3461C39.5699 18.9141 41.3679 20.7149 41.3679 22.9422V37.0645C41.3679 39.2918 39.5699 41.0926 37.3461 41.0926Z" fill="#FF26BE"/>
<path d="M37.0324 40.1448H22.9922C21.0871 40.1448 19.5345 38.5999 19.5345 36.7043V23.3023C19.5345 21.4067 21.0871 19.8618 22.9922 19.8618H37.0229C38.9375 19.8618 40.4806 21.4067 40.4806 23.3023V36.6948C40.4901 38.5999 38.9375 40.1448 37.0324 40.1448Z" fill="#2E001F"/>
<path d="M27.6215 29.2924L30.2885 34.3916C30.3362 34.4674 30.3076 34.5433 30.2314 34.5433H28.574C28.4692 34.5433 28.4216 34.5148 28.374 34.4201C27.7643 33.169 27.1452 31.9179 26.507 30.572H26.488C25.9164 31.842 25.2878 33.1784 24.6782 34.4295C24.6305 34.5054 24.5829 34.5338 24.5067 34.5338H22.935C22.8398 34.5338 22.8303 34.458 22.8779 34.4011L25.4878 29.4536L22.9636 24.4492C22.9065 24.3734 22.9636 24.3165 23.0208 24.3165H24.6591C24.7544 24.3165 24.7925 24.3354 24.8306 24.4207C25.4306 25.6718 26.0403 26.9609 26.6118 28.2214H26.6308C27.1833 26.9703 27.7929 25.6718 28.3835 24.4302C28.4311 24.3544 28.4597 24.307 28.5549 24.307H30.0885C30.1647 24.307 30.1933 24.3639 30.1457 24.4397L27.6215 29.2924ZM30.7553 30.8374C30.7553 28.629 32.2317 26.904 34.5749 26.904C34.7749 26.904 34.8797 26.904 35.0702 26.9229V24.4113C35.0702 24.3544 35.1178 24.3165 35.1655 24.3165H36.6704C36.7467 24.3165 36.7657 24.3449 36.7657 24.3923V33.0931C36.7657 33.349 36.7657 33.6713 36.8133 34.022C36.8133 34.0788 36.7943 34.0978 36.7371 34.1262C35.937 34.5054 35.0988 34.676 34.2987 34.676C32.2317 34.6854 30.7553 33.4154 30.7553 30.8374ZM35.0702 28.411C34.9369 28.3541 34.7463 28.3162 34.5177 28.3162C33.3176 28.3162 32.4793 29.2356 32.4793 30.7615C32.4793 32.5055 33.3366 33.2069 34.413 33.2069C34.6416 33.2069 34.8892 33.1784 35.0702 33.1026V28.411Z" fill="#FFD9F2"/>
</g>
<rect x="1.30672" y="1.47408" width="56.3866" height="56.3866" rx="9.93697" stroke="#F5F5F5" stroke-width="1.38655"/>
<defs>
<clipPath id="clip0_1_901">
<rect width="23" height="23" fill="white" transform="translate(18.5 18.1674)"/>
</clipPath>
</defs>
</svg>
